<svg width="59" height="13" viewBox="0 0 59 13" fill="none" xmlns="http://www.w3.org/2000/svg">
<path d="M7.17045 3.85227C7.13258 3.43561 6.96402 3.11174 6.66477 2.88068C6.36932 2.64583 5.94697 2.52841 5.39773 2.52841C5.03409 2.52841 4.73106 2.57576 4.48864 2.67045C4.24621 2.76515 4.06439 2.89583 3.94318 3.0625C3.82197 3.22538 3.75947 3.41288 3.75568 3.625C3.74811 3.79924 3.7822 3.95265 3.85795 4.08523C3.9375 4.2178 4.05114 4.33523 4.19886 4.4375C4.35038 4.53598 4.5322 4.62311 4.74432 4.69886C4.95644 4.77462 5.19508 4.84091 5.46023 4.89773L6.46023 5.125C7.03599 5.25 7.54356 5.41667 7.98295 5.625C8.42614 5.83333 8.79735 6.08144 9.09659 6.36932C9.39962 6.6572 9.62879 6.98864 9.78409 7.36364C9.93939 7.73864 10.0189 8.15909 10.0227 8.625C10.0189 9.35985 9.83333 9.99053 9.46591 10.517C9.09848 11.0436 8.57008 11.447 7.88068 11.7273C7.19508 12.0076 6.36742 12.1477 5.39773 12.1477C4.42424 12.1477 3.57576 12.0019 2.85227 11.7102C2.12879 11.4186 1.56629 10.9754 1.16477 10.3807C0.763258 9.78598 0.556818 9.03409 0.545455 8.125H3.23864C3.26136 8.5 3.36174 8.8125 3.53977 9.0625C3.7178 9.3125 3.96212 9.50189 4.27273 9.63068C4.58712 9.75947 4.95076 9.82386 5.36364 9.82386C5.74242 9.82386 6.06439 9.77273 6.32955 9.67045C6.59849 9.56818 6.80492 9.42614 6.94886 9.24432C7.0928 9.0625 7.16667 8.85417 7.17045 8.61932C7.16667 8.39962 7.09849 8.21212 6.96591 8.05682C6.83333 7.89773 6.62879 7.76136 6.35227 7.64773C6.07955 7.5303 5.73106 7.42235 5.30682 7.32386L4.09091 7.03977C3.08333 6.80871 2.28977 6.43561 1.71023 5.92045C1.13068 5.40151 0.842803 4.70076 0.846591 3.81818C0.842803 3.09848 1.03598 2.4678 1.42614 1.92614C1.81629 1.38447 2.35606 0.962121 3.04545 0.659091C3.73485 0.35606 4.52083 0.204545 5.40341 0.204545C6.30492 0.204545 7.08712 0.357954 7.75 0.664772C8.41667 0.967803 8.93371 1.39394 9.30114 1.94318C9.66856 2.49242 9.85606 3.12879 9.86364 3.85227H7.17045ZM22.0057 4.57955H19.1648C19.1269 4.28788 19.0492 4.02462 18.9318 3.78977C18.8144 3.55492 18.6591 3.35417 18.4659 3.1875C18.2727 3.02083 18.0436 2.89394 17.7784 2.80682C17.517 2.71591 17.2273 2.67045 16.9091 2.67045C16.3447 2.67045 15.858 2.80871 15.4489 3.08523C15.0436 3.36174 14.7311 3.76136 14.5114 4.28409C14.2955 4.80682 14.1875 5.43939 14.1875 6.18182C14.1875 6.95455 14.2973 7.60227 14.517 8.125C14.7405 8.64394 15.053 9.03598 15.4545 9.30114C15.8598 9.5625 16.339 9.69318 16.892 9.69318C17.2027 9.69318 17.4848 9.65341 17.7386 9.57386C17.9962 9.49432 18.2216 9.37879 18.4148 9.22727C18.6117 9.07197 18.7727 8.88447 18.8977 8.66477C19.0265 8.44129 19.1155 8.18939 19.1648 7.90909L22.0057 7.92614C21.9564 8.44129 21.8068 8.94886 21.5568 9.44886C21.3106 9.94886 20.9716 10.4053 20.5398 10.8182C20.108 11.2273 19.5814 11.553 18.9602 11.7955C18.3428 12.0379 17.6345 12.1591 16.8352 12.1591C15.7822 12.1591 14.839 11.928 14.0057 11.4659C13.1761 11 12.5208 10.322 12.0398 9.43182C11.5587 8.54167 11.3182 7.45833 11.3182 6.18182C11.3182 4.90152 11.5625 3.81629 12.0511 2.92614C12.5398 2.03598 13.2008 1.35985 14.0341 0.897727C14.8674 0.435606 15.8011 0.204545 16.8352 0.204545C17.5398 0.204545 18.1913 0.30303 18.7898 0.5C19.3883 0.693181 19.9148 0.977272 20.3693 1.35227C20.8239 1.72348 21.1932 2.17992 21.4773 2.72159C21.7614 3.26326 21.9375 3.88258 22.0057 4.57955ZM23.6151 12V0.363636H28.4219C29.2931 0.363636 30.045 0.520833 30.6776 0.835227C31.3139 1.14583 31.8045 1.5928 32.1491 2.17614C32.4938 2.75568 32.6662 3.44318 32.6662 4.23864C32.6662 5.04545 32.4901 5.73106 32.1378 6.29545C31.7855 6.85606 31.2855 7.28409 30.6378 7.57955C29.9901 7.87121 29.223 8.01705 28.3366 8.01705H25.2969V5.80114H27.8139C28.2382 5.80114 28.5923 5.74621 28.8764 5.63636C29.1643 5.52273 29.3821 5.35227 29.5298 5.125C29.6776 4.89394 29.7514 4.59848 29.7514 4.23864C29.7514 3.87879 29.6776 3.58144 29.5298 3.34659C29.3821 3.10795 29.1643 2.92992 28.8764 2.8125C28.5885 2.69129 28.2344 2.63068 27.8139 2.63068H26.4276V12H23.6151ZM30.1662 6.68182L33.0639 12H29.9957L27.1548 6.68182H30.1662ZM41.2486 0.363636H44.0554V7.86932C44.0554 8.73674 43.849 9.49242 43.4361 10.1364C43.0232 10.7765 42.4474 11.2727 41.7088 11.625C40.9702 11.9735 40.1122 12.1477 39.1349 12.1477C38.1463 12.1477 37.2827 11.9735 36.544 11.625C35.8054 11.2727 35.2315 10.7765 34.8224 10.1364C34.4134 9.49242 34.2088 8.73674 34.2088 7.86932V0.363636H37.0213V7.625C37.0213 8.02652 37.1084 8.38447 37.2827 8.69886C37.4607 9.01326 37.7088 9.25947 38.027 9.4375C38.3452 9.61553 38.7145 9.70455 39.1349 9.70455C39.5554 9.70455 39.9228 9.61553 40.2372 9.4375C40.5554 9.25947 40.8035 9.01326 40.9815 8.69886C41.1596 8.38447 41.2486 8.02652 41.2486 7.625V0.363636ZM45.8182 0.363636H49.3011L52.2557 7.56818H52.392L55.3466 0.363636H58.8295V12H56.0909V4.85227H55.9943L53.1989 11.9261H51.4489L48.6534 4.8125H48.5568V12H45.8182V0.363636Z" fill="#E7C236"/>
</svg>
