<svg width="34" height="35" viewBox="0 0 34 35" fill="none" xmlns="http://www.w3.org/2000/svg">
<g clip-path="url(#clip0_5_80)">
<path d="M17 21.8749C19.3472 21.8749 21.25 19.9162 21.25 17.4999C21.25 15.0837 19.3472 13.1249 17 13.1249C14.6527 13.1249 12.75 15.0837 12.75 17.4999C12.75 19.9162 14.6527 21.8749 17 21.8749Z" stroke="#E7C236" stroke-width="2" stroke-linecap="round" stroke-linejoin="round"/>
<path d="M27.4833 21.8749C27.2947 22.3148 27.2385 22.8027 27.3218 23.2758C27.4051 23.7489 27.6242 24.1854 27.9508 24.5291L28.0358 24.6166C28.2992 24.8875 28.5082 25.2091 28.6508 25.5632C28.7934 25.9173 28.8668 26.2968 28.8668 26.6801C28.8668 27.0634 28.7934 27.443 28.6508 27.797C28.5082 28.1511 28.2992 28.4728 28.0358 28.7437C27.7727 29.0149 27.4602 29.23 27.1162 29.3768C26.7722 29.5235 26.4036 29.5991 26.0312 29.5991C25.6589 29.5991 25.2902 29.5235 24.9462 29.3768C24.6022 29.23 24.2898 29.0149 24.0266 28.7437L23.9416 28.6562C23.6077 28.32 23.1837 28.0944 22.7241 28.0087C22.2646 27.9229 21.7906 27.9808 21.3633 28.1749C20.9443 28.3598 20.5869 28.6667 20.3352 29.058C20.0835 29.4493 19.9484 29.9077 19.9466 30.377V30.6249C19.9466 31.3985 19.6481 32.1403 19.1168 32.6873C18.5854 33.2343 17.8647 33.5416 17.1133 33.5416C16.3618 33.5416 15.6412 33.2343 15.1098 32.6873C14.5785 32.1403 14.28 31.3985 14.28 30.6249V30.4937C14.269 30.011 14.1172 29.5428 13.8443 29.1501C13.5715 28.7574 13.1902 28.4583 12.75 28.2916C12.3227 28.0975 11.8487 28.0396 11.3891 28.1253C10.9296 28.2111 10.5055 28.4366 10.1716 28.7728L10.0866 28.8603C9.82349 29.1315 9.511 29.3466 9.16704 29.4934C8.82308 29.6402 8.45439 29.7158 8.08204 29.7158C7.7097 29.7158 7.34101 29.6402 6.99704 29.4934C6.65308 29.3466 6.3406 29.1315 6.07746 28.8603C5.81403 28.5895 5.60504 28.2678 5.46246 27.9137C5.31987 27.5596 5.24648 27.1801 5.24648 26.7968C5.24648 26.4135 5.31987 26.034 5.46246 25.6799C5.60504 25.3258 5.81403 25.0041 6.07746 24.7333L6.16246 24.6458C6.48905 24.3021 6.70814 23.8655 6.79147 23.3924C6.87479 22.9194 6.81854 22.4314 6.62996 21.9916C6.45038 21.5603 6.1522 21.1924 5.77212 20.9333C5.39204 20.6742 4.94666 20.5351 4.49079 20.5333H4.24996C3.49851 20.5333 2.77784 20.226 2.24649 19.679C1.71514 19.132 1.41663 18.3901 1.41663 17.6166C1.41663 16.843 1.71514 16.1012 2.24649 15.5542C2.77784 15.0072 3.49851 14.6999 4.24996 14.6999H4.37746C4.84637 14.6886 5.30113 14.5324 5.68263 14.2515C6.06413 13.9706 6.35472 13.5781 6.51663 13.1249C6.70521 12.6851 6.76146 12.1971 6.67813 11.7241C6.59481 11.251 6.37572 10.8145 6.04913 10.4708L5.96413 10.3833C5.70069 10.1124 5.49171 9.7907 5.34912 9.43662C5.20654 9.08254 5.13315 8.70301 5.13315 8.31971C5.13315 7.93642 5.20654 7.55688 5.34912 7.2028C5.49171 6.84872 5.70069 6.52705 5.96413 6.25617C6.22727 5.98499 6.53975 5.76986 6.88371 5.62308C7.22767 5.4763 7.59637 5.40075 7.96871 5.40075C8.34105 5.40075 8.70975 5.4763 9.05371 5.62308C9.39767 5.76986 9.71015 5.98499 9.97329 6.25617L10.0583 6.34367C10.3922 6.67987 10.8162 6.9054 11.2758 6.99118C11.7354 7.07695 12.2093 7.01905 12.6366 6.82492H12.75C13.169 6.64006 13.5263 6.3331 13.778 5.94185C14.0297 5.55059 14.1648 5.09211 14.1666 4.62284V4.37492C14.1666 3.60137 14.4651 2.85951 14.9965 2.31252C15.5278 1.76554 16.2485 1.45825 17 1.45825C17.7514 1.45825 18.4721 1.76554 19.0034 2.31252C19.5348 2.85951 19.8333 3.60137 19.8333 4.37492V4.50617C19.8351 4.97544 19.9702 5.43392 20.2219 5.82518C20.4736 6.21644 20.831 6.52339 21.25 6.70825C21.6772 6.90238 22.1512 6.96029 22.6108 6.87451C23.0704 6.78873 23.4944 6.5632 23.8283 6.227L23.9133 6.1395C24.1764 5.86832 24.4889 5.65319 24.8329 5.50641C25.1768 5.35963 25.5455 5.28408 25.9179 5.28408C26.2902 5.28408 26.6589 5.35963 27.0029 5.50641C27.3468 5.65319 27.6593 5.86832 27.9225 6.1395C28.1859 6.41038 28.3949 6.73206 28.5375 7.08614C28.68 7.44021 28.7534 7.81975 28.7534 8.20304C28.7534 8.58634 28.68 8.96588 28.5375 9.31995C28.3949 9.67403 28.1859 9.99571 27.9225 10.2666L27.8375 10.3541C27.5109 10.6978 27.2918 11.1343 27.2085 11.6074C27.1251 12.0805 27.1814 12.5684 27.37 13.0083V13.1249C27.5495 13.5563 27.8477 13.9241 28.2278 14.1832C28.6079 14.4423 29.0533 14.5814 29.5091 14.5833H29.75C30.5014 14.5833 31.2221 14.8905 31.7534 15.4375C32.2848 15.9845 32.5833 16.7264 32.5833 17.4999C32.5833 18.2735 32.2848 19.0153 31.7534 19.5623C31.2221 20.1093 30.5014 20.4166 29.75 20.4166H29.6225C29.1666 20.4185 28.7212 20.5575 28.3411 20.8166C27.9611 21.0757 27.6629 21.4436 27.4833 21.8749Z" stroke="#E7C236" stroke-width="2" stroke-linecap="round" stroke-linejoin="round"/>
</g>
<defs>
<clipPath id="clip0_5_80">
<rect width="34" height="35" fill="white"/>
</clipPath>
</defs>
</svg>
