<?xml version="1.0" encoding="utf-8"?>
<!-- Generator: Adobe Illustrator 24.2.0, SVG Export Plug-In . SVG Version: 6.00 Build 0)  -->
<svg version="1.1" id="Capa_1" xmlns="http://www.w3.org/2000/svg" xmlns:xlink="http://www.w3.org/1999/xlink" x="0px" y="0px"
	 viewBox="0 0 800 800" style="enable-background:new 0 0 800 800;" xml:space="preserve">
<style type="text/css">
	.st0{fill:#FFC200;}
</style>
<path class="st0" d="M175,100c-41.4,0-75,33.6-75,75v450c0,41.4,33.6,75,75,75h450c41.4,0,75-33.6,75-75V175c0-41.4-33.6-75-75-75
	H175z M359.3,292.7l-66.7,66.7c-9.8,9.8-25.6,9.8-35.4,0L224,326c-9.8-9.8-9.8-25.6,0-35.4c9.8-9.8,25.6-9.8,35.4,0l15.7,15.7l49-49
	c9.8-9.8,25.6-9.8,35.4,0S369.1,282.9,359.3,292.7z M558.3,283.3c13.8,0,25,11.2,25,25s-11.2,25-25,25H441.7c-13.8,0-25-11.2-25-25
	s11.2-25,25-25H558.3z M416.7,491.7c0-13.8,11.2-25,25-25h116.7c13.8,0,25,11.2,25,25c0,13.8-11.2,25-25,25H441.7
	C427.9,516.7,416.7,505.5,416.7,491.7z M359.3,440.7c9.8,9.8,9.8,25.6,0,35.4l-66.7,66.7c-9.8,9.8-25.6,9.8-35.4,0L224,509.3
	c-9.8-9.8-9.8-25.6,0-35.4c9.8-9.8,25.6-9.8,35.4,0l15.7,15.7l49-49C333.8,430.9,349.6,430.9,359.3,440.7z"/>
</svg>
