<?xml version="1.0" encoding="utf-8"?>
<!-- Generator: Adobe Illustrator 24.2.0, SVG Export Plug-In . SVG Version: 6.00 Build 0)  -->
<svg version="1.1" id="Capa_1" xmlns="http://www.w3.org/2000/svg" xmlns:xlink="http://www.w3.org/1999/xlink" x="0px" y="0px"
	 viewBox="0 0 440 360.4" style="enable-background:new 0 0 440 360.4;" xml:space="preserve">
<style type="text/css">
	.st0{opacity:0.5;fill:#D5ECFF;enable-background:new    ;}
	.st1{fill-rule:evenodd;clip-rule:evenodd;fill:#FFFFFF;filter:url(#Adobe_OpacityMaskFilter);}
	.st2{mask:url(#mask0_0_1_1_);}
	.st3{fill-rule:evenodd;clip-rule:evenodd;fill:#C26E5E;}
	.st4{fill-rule:evenodd;clip-rule:evenodd;fill:#56ACF6;}
	.st5{fill:#204EB2;}
	.st6{fill-rule:evenodd;clip-rule:evenodd;fill:#F9C818;}
	.st7{fill-rule:evenodd;clip-rule:evenodd;fill:#204EB2;}
	.st8{fill-rule:evenodd;clip-rule:evenodd;fill:#1F9BEB;}
	.st9{fill-rule:evenodd;clip-rule:evenodd;}
	.st10{fill-rule:evenodd;clip-rule:evenodd;fill:#FFFFFF;}
	.st11{fill-rule:evenodd;clip-rule:evenodd;fill:#C38741;}
	.st12{fill-rule:evenodd;clip-rule:evenodd;fill:#DDB0C8;}
	.st13{fill-rule:evenodd;clip-rule:evenodd;fill:#FCEBEC;}
	.st14{fill-rule:evenodd;clip-rule:evenodd;fill:#D60000;}
	.st15{fill-rule:evenodd;clip-rule:evenodd;fill:#7D4439;}
	.st16{fill-rule:evenodd;clip-rule:evenodd;fill:#864A56;}
	.st17{fill-rule:evenodd;clip-rule:evenodd;fill:#FFFFFF;filter:url(#Adobe_OpacityMaskFilter_1_);}
	.st18{mask:url(#mask1_0_1_1_);}
	.st19{fill-rule:evenodd;clip-rule:evenodd;fill:#FFFFFF;filter:url(#Adobe_OpacityMaskFilter_2_);}
	.st20{mask:url(#mask2_0_1_1_);}
	.st21{fill-rule:evenodd;clip-rule:evenodd;fill:#FFFFFF;filter:url(#Adobe_OpacityMaskFilter_3_);}
	.st22{mask:url(#mask3_0_1_1_);}
	.st23{fill-rule:evenodd;clip-rule:evenodd;fill:#F8D8B8;}
	.st24{fill-rule:evenodd;clip-rule:evenodd;fill:#E4F9FF;}
	.st25{fill-rule:evenodd;clip-rule:evenodd;fill:#2E2C36;}
	.st26{fill-rule:evenodd;clip-rule:evenodd;fill:#FFFFFF;filter:url(#Adobe_OpacityMaskFilter_4_);}
	.st27{mask:url(#mask4_0_1_1_);}
	.st28{fill-rule:evenodd;clip-rule:evenodd;fill:#3B3D4A;}
	.st29{fill:#FFFFFF;}
	.st30{fill-rule:evenodd;clip-rule:evenodd;fill:#FFFFFF;filter:url(#Adobe_OpacityMaskFilter_5_);}
	.st31{mask:url(#mask5_0_1_1_);}
	.st32{fill-rule:evenodd;clip-rule:evenodd;fill:#E93737;}
	.st33{fill-rule:evenodd;clip-rule:evenodd;fill:#FFFFFF;filter:url(#Adobe_OpacityMaskFilter_6_);}
	.st34{mask:url(#mask6_0_1_1_);}
	.st35{fill-rule:evenodd;clip-rule:evenodd;fill:#F7C8A9;}
	.st36{fill-rule:evenodd;clip-rule:evenodd;fill:#353644;}
	.st37{fill-rule:evenodd;clip-rule:evenodd;fill:#2C262B;}
	.st38{fill-rule:evenodd;clip-rule:evenodd;fill:#3E454F;}
	.st39{fill:none;stroke:#000000;stroke-width:1.5736;}
	.st40{fill-rule:evenodd;clip-rule:evenodd;fill:#CE4129;}
	.st41{fill-rule:evenodd;clip-rule:evenodd;fill:#878787;}
	.st42{fill-rule:evenodd;clip-rule:evenodd;fill:#FFFFFF;filter:url(#Adobe_OpacityMaskFilter_7_);}
	.st43{mask:url(#mask7_0_1_1_);}
	.st44{fill-rule:evenodd;clip-rule:evenodd;fill:#FFFFFF;filter:url(#Adobe_OpacityMaskFilter_8_);}
	.st45{mask:url(#mask8_0_1_1_);}
</style>
<g>
	<path class="st0" d="M180.2,347.6c99.5,0,180.2-2.9,180.2-6.5c0-3.6-80.7-6.5-180.2-6.5C80.7,334.6,0,337.5,0,341.1
		C0,344.7,80.7,347.6,180.2,347.6z"/>
	<defs>
		<filter id="Adobe_OpacityMaskFilter" filterUnits="userSpaceOnUse" x="188.1" y="315.9" width="44.6" height="25.1">
			<feColorMatrix  type="matrix" values="1 0 0 0 0  0 1 0 0 0  0 0 1 0 0  0 0 0 1 0"/>
		</filter>
	</defs>
	<mask maskUnits="userSpaceOnUse" x="188.1" y="315.9" width="44.6" height="25.1" id="mask0_0_1_1_">
		<path class="st1" d="M232.7,315.9h-44.6V341h44.6V315.9z"/>
	</mask>
	<g class="st2">
		<path class="st3" d="M193.2,316.9c0,0,0.9,7.2-1.6,11.6c-2.6,4.5-6.1,10.4-0.7,10.6c5.4,0.1,14.6-0.8,26.9,1.1
			c12.3,1.9,16.6,0.3,14.2-2.8c-2.4-3.1-21.7-6.6-22.6-13.8c-0.8-6.9,0.9-7.6,0.9-7.6L193.2,316.9z"/>
	</g>
	<path class="st3" d="M121,313.6c0,0,0.9,7.2-1.6,11.6c-2.6,4.5-6.1,10.4-0.7,10.6c5.4,0.1,14.6-0.8,26.9,1.1
		c12.3,1.9,16.6,0.3,14.2-2.8c-2.4-3.1-24.5-7.8-22.1-14.6l2.4-6.8L121,313.6z"/>
	<path class="st4" d="M213.3,271.2c0.4,19,0.7,46.3,0.7,46.3l-21.2,0.8c0,0-4.4,1.2-7.2-52.1c-0.4-6.9-14.2-58-13.7-51.9
		c0.5,7-32.3,100.5-32.3,100.5l-19-0.1c17.1-99.1,25.6-148.6,25.6-148.6h49.2C195.3,166,212.8,252.1,213.3,271.2z"/>
	<path class="st5" d="M175,197.4l-3.7,16.7l1.1,0.2l3.7-16.7L175,197.4z"/>
	<path class="st3" d="M164.7,92.4c0,0-0.4,9.1-5.7,12.4c-4.8,2.9,5.4,19.9,16.4,18.9c6-0.6,7.4-17,7.4-17s-4.9-0.9-3.1-8.4
		L164.7,92.4z"/>
	<path class="st3" d="M173.5,101.7c-7.1-0.9-12.3-5.6-13-13.3c-2.1,0.3-2.6-5.1-2-6.8c0.6-1.7,2.5-0.7,2.5-0.7
		c0.1-0.3,0.2-0.6,0.3-0.9c3.1-12.8,11.9-12.3,11.9-12.3c16.1,0.8,12.3,17.2,11.4,21.6C183.5,93.6,180.4,102.5,173.5,101.7z"/>
	<path class="st3" d="M125.4,132.4c-12.7,20.1-16.7,32.4-12,36.7c4.7,4.3,13.6-0.9,26.8-15.7c-0.7-3.3-2.4-6.9-5.3-10.8
		C132.2,138.7,129,135.3,125.4,132.4z"/>
	<path class="st6" d="M205.6,146.7l-9.3-1.1c0,0,2.4,31.9,1.5,31.9c-0.5,0-11.6,6-27.2,6c-12,0-26.7-4-27.3-4
		c-0.1,0-0.2-0.1-0.2-0.2c0.2-2.2,0.4-6.1,0.5-10.4c0.1-3,0.2-6.2,0.4-9.2c0.1-2.8,0.3-5.3,0.4-7.3c0.7-8.6,0.2-16.5,0.2-16.5
		l-3.6,9.6l-22.5-8.2c0,0,7.5-11,16.5-20.5c8.9-9.5,23.2-11.9,23.4-11.9c0,0,0,0,0,0s-0.8,13,12.7,14.1
		c11.2,0.8,11.8-12.6,11.8-12.6s13.1,3.4,16.9,6.6c3.8,3.2,20.4,25.1,20.4,25.7C220,139.4,205.6,146.7,205.6,146.7z"/>
	<path class="st6" d="M143.8,159.9c-0.1,3-0.2,6.2-0.4,9.2C143.4,167,143.5,164.1,143.8,159.9z"/>
	<path class="st7" d="M190.5,150.5l-11.8,1c-0.7,0.1-1.3-0.5-1.4-1.2l-1.9-23.2c-0.1-0.7,0.5-1.3,1.2-1.4l11.8-1
		c0.7-0.1,1.3,0.5,1.4,1.2l1.9,23.2C191.7,149.8,191.2,150.4,190.5,150.5z"/>
	<path class="st8" d="M191.7,149.9l-11.8,1c-0.7,0.1-1.3-0.5-1.4-1.2l-1.8-22.4c-0.1-0.7,0.5-1.3,1.2-1.4l11.8-1
		c0.7-0.1,1.3,0.5,1.4,1.2l1.8,22.4C192.9,149.2,192.4,149.8,191.7,149.9z"/>
	<path class="st7" d="M189.7,127.5c0.1,0.7-0.4,1.3-1.1,1.3c-0.7,0.1-1.3-0.4-1.3-1.1c-0.1-0.7,0.4-1.3,1.1-1.3
		C189,126.3,189.6,126.8,189.7,127.5z"/>
	<path class="st3" d="M187.3,149c0,0-5.9,1.3-6-0.8c0,0,4-1.7,4.9-1.6c0.9,0.1,5.1,0.6,5.1,0.6l-5.2-2.6l-5.2,1.6
		c0,0-1.2,0.1-1.7-0.8s0.1-1.3,0.1-1.3l6.8-2.2c0,0,0.2-0.7-1.5-0.8s-5.5-0.3-5.5-0.3s-0.8-0.7-0.5-2c0.4-1.3,2.5-0.8,2.5-0.8
		s-1.2-1.1,0.6-2.4c0,0,5.5,0.2,7.5,1.4c2,1.3,15.8,9.7,15.8,9.7l10.7-5.6c13.6,16.6,17.2,26.4,10.8,29.5
		C220.3,173.6,207.2,166.4,187.3,149z"/>
	<path class="st9" d="M193.3,141.6l-5.4-3l-6.7-0.7l0-0.4l6.7,0.7c0,0,0.1,0,0.1,0l5.4,3.1L193.3,141.6z"/>
	<path class="st9" d="M214.9,152.8l-12.9-8.1l0.2-0.4l12.9,8.1L214.9,152.8z"/>
	<path class="st9" d="M134.3,143.6l-12.9,8l-0.2-0.4l12.9-8L134.3,143.6z"/>
	<path class="st9" d="M192.9,144c0,0-3.4-2.3-4.3-2.7c-0.7-0.3-2,0.2-2.5,0.5l-0.2-0.4c0.1,0,1.8-0.9,2.8-0.5
		c0.9,0.4,4.2,2.6,4.4,2.7L192.9,144z"/>
	<path class="st3" d="M191.7,135.1l3.3,5.1l-3.2-2L191.7,135.1z"/>
	<path class="st9" d="M194.9,140.4l-3.2-2l0.2-0.4l3.2,2L194.9,140.4z"/>
	<path class="st10" d="M150.8,152.8l-4-0.1c-4.2-0.1-7.5-3.5-7.4-7.7l0.2-12.6l18,0.4l-0.3,13.6C157.4,150,154.4,152.9,150.8,152.8z
		"/>
	<path class="st3" d="M139.3,136.8c0,0-1.6,1-2.1,1.7c-0.5,0.6-0.1,0.8-1.2,2c-1.2,1.2-3.2,4.3,0.4,9c3.7,4.7,4.9,4.3,6.4,3.5
		c1.5-0.8,1.7-1.4,4.5-1.7c2.8-0.3,5.6-3.1,5.5-3.8l-0.1-0.7c0,0,2.6-1,2.4-2.1c-0.2-1.1-0.9-1-0.9-1s0.5-0.5,0.1-1.4
		c-0.4-0.9-2.3-0.8-4.5-0.5c-2.2,0.3-7.9,1.4-8.2,1.2c-0.3-0.2-0.2-0.6,1.1-0.8c1.3-0.2,6.7-0.2,6.7-1.7c0-1.5-1.6-1.8-4.8-1.7
		c-3.1,0.1-3.7-0.1-4.5,0.2l-0.8,0.3L139.3,136.8z"/>
	<path class="st9" d="M154.3,143.7c0,0,0.2-0.1-1.1,0.4c-0.5,0.2-1.1,0.4-2,0.5c-3.4,0.6-8.6,1.8-10.3,2c-1.6,0.2-0.3,0.6,3.4-0.2
		c3.7-0.8,8.1-1.8,8.3-1.8C153,144.5,154,144.1,154.3,143.7z"/>
	<path class="st9" d="M151.5,147.1c0,0-2.7,1-4.1,1.3c-1.4,0.4-2.5,0.8-2.8,0.4c-0.3-0.5-0.6-0.6-0.6-0.6l-0.5,0.5
		c0,0,0.1,0.6-0.2,0.6c-0.5,0.1-1.3,0.3-1.3,0.3s0,0.3,2.7-0.2c0.7-0.1,1.9-0.3,2.7-0.6c0.7-0.2,3.3-0.9,3.7-1.2
		C151.4,147.4,151.5,147.1,151.5,147.1z"/>
	<path class="st6" d="M143,146.8c0,0,0,2.3,0.6,2.3c0.7,0,0.9,0,1-0.2s-0.2-0.8-0.2-1.4c0-0.6,0-0.9-0.5-0.9
		C143.4,146.7,143,146.7,143,146.8z"/>
	<path class="st11" d="M140,45.4c6.9,5.4,13.5,16.3,25.2,14.6c11.7-1.7,27,5.2,20.1,24.3c0,0,0.3-10.4-5.6-14
		c-5.9-3.6-7.8,15.4-18.9,10.6c0,0-1.8-1-2.3,0.6c-0.4,1.6-0.1,5.8,1.1,6.6c0,0,0.3,0.3,0.9,0c0,0,0.3,5.3,3.5,8.6
		c0,0-0.8,2.6-1.1,3l-0.2,0c0,0-10.8,8.3-22.5-1.1c-11.7-9.4-19.5-2.2-28.9-11c-9.4-8.8,13.2-35.2,7.4-41.5
		C125.7,38.6,136.7,42.7,140,45.4z"/>
	<path class="st12" d="M108.9,206.4l28.9,16L78.3,343.1L38,320.8L108.9,206.4z"/>
	<path class="st13" d="M229.4,14.8c56.9,31.5,77.4,103.2,45.9,160c-31.5,56.9-103.2,77.4-160,45.9c-56.9-31.5-77.4-103.2-45.9-160
		C100.8,3.8,172.5-16.7,229.4,14.8z M219.7,32.2C172.5,6.1,113,23.1,86.8,70.4c-26.2,47.2-9.1,106.7,38.1,132.9
		c47.2,26.2,106.7,9.1,132.9-38.1C284,117.9,266.9,58.4,219.7,32.2z"/>
	<path class="st14" d="M275.5,279.5l4,37.9c0,0-39.4,9.5-53.8-2.9l-1.5-33.4C224.3,281.1,241.4,280.5,275.5,279.5z"/>
	<path class="st15" d="M258.3,230.1c0,0,0.4,9.1,5.7,12.4c4.8,2.9-5.4,19.9-16.4,18.9c-6-0.6-7.4-17-7.4-17s4.9-0.9,3.1-8.4
		L258.3,230.1z"/>
	<path class="st15" d="M249.5,239.4c7.1-0.9,12.3-5.6,13-13.3c2.1,0.3,2.6-5.1,2-6.8c-0.6-1.7-2.5-0.7-2.5-0.7
		c-0.1-0.3-0.2-0.6-0.3-0.9c-3.1-12.8-11.9-12.3-11.9-12.3c-16.1,0.8-12.3,17.2-11.4,21.6C239.4,231.3,242.6,240.2,249.5,239.4z"/>
	<path class="st16" d="M225.7,291.6c2.4-1,5.4-4,9.1-9.1c2.7-3.7,4.8-7.3,4.8-7.3l-0.4-0.2c-0.1,0.1-8.1,13.9-13.6,16.2L225.7,291.6
		z"/>
	<defs>
		<filter id="Adobe_OpacityMaskFilter_1_" filterUnits="userSpaceOnUse" x="221.7" y="242" width="67.9" height="69.4">
			<feColorMatrix  type="matrix" values="1 0 0 0 0  0 1 0 0 0  0 0 1 0 0  0 0 0 1 0"/>
		</filter>
	</defs>
	<mask maskUnits="userSpaceOnUse" x="221.7" y="242" width="67.9" height="69.4" id="mask1_0_1_1_">
		<path class="st17" d="M289.7,242h-67.9v69.4h67.9V242z"/>
	</mask>
	<g class="st18">
		<path class="st14" d="M263.6,242c0,0,20,1.9,24.1,22.7c4.1,20.8,4.6,45.3-27.2,46.5c-31.8,1.3-34.5-4.1-34.4-5.2
			c0-1.2-0.5-20.4-3.1-35c-2.6-14.6-2.8-22.5,17-27.3C240,243.5,248.7,255.2,263.6,242z"/>
	</g>
	<path class="st7" d="M248.4,250.5l-2.4-10.8c0,0,0.1-1.8-2.7-1.7c-2.8,0.1-22.7-0.2-22.7-0.2s-1.6-0.2-2,1.2
		c-0.4,1.5,5.4,26,5.4,26s-0.1,1.7,1.8,1.7c1.9,0,25.4,0.9,25.4,0.9L248.4,250.5z"/>
	<defs>
		<filter id="Adobe_OpacityMaskFilter_2_" filterUnits="userSpaceOnUse" x="218.5" y="237.7" width="32.8" height="29.9">
			<feColorMatrix  type="matrix" values="1 0 0 0 0  0 1 0 0 0  0 0 1 0 0  0 0 0 1 0"/>
		</filter>
	</defs>
	<mask maskUnits="userSpaceOnUse" x="218.5" y="237.7" width="32.8" height="29.9" id="mask2_0_1_1_">
		<path class="st19" d="M251.3,237.7h-32.8v29.9h32.8V237.7z"/>
	</mask>
	<g class="st20">
		<path class="st9" d="M248.3,250.5l2.8,17c-1.4-0.1-23.5-0.9-25.4-0.9c-0.6,0-1-0.2-1.3-0.5c-0.4-0.5-0.4-1.1-0.4-1.1v0l0,0
			c-0.1-0.2-5.8-24.5-5.4-26c0.4-1.4,1.9-1.2,2-1.2c0.2,0,20,0.3,22.7,0.2c1,0,1.8,0.2,2.2,0.6c0.4,0.5,0.4,1,0.4,1l0,0l0,0
			L248.3,250.5z M251.3,267.7l-2.8-17.2l-2.4-10.8c0-0.1,0-0.6-0.4-1.1c-0.5-0.5-1.2-0.7-2.3-0.7c-2.8,0.1-22.5-0.2-22.7-0.2
			c0,0-1.6-0.2-2.1,1.3c-0.4,1.5,5.1,24.9,5.4,26c0,0.1,0,0.7,0.4,1.2c0.3,0.3,0.8,0.5,1.4,0.5C227.7,266.8,251,267.7,251.3,267.7
			L251.3,267.7z"/>
	</g>
	<path class="st4" d="M247.6,251.3l-2.4-10.8c0,0,0.1-1.8-2.7-1.7c-2.8,0.1-22.7-0.2-22.7-0.2s-1.6-0.2-2,1.2
		c-0.4,1.5,5.4,26,5.4,26s-0.1,1.7,1.8,1.7c1.9,0,25.4,0.9,25.4,0.9L247.6,251.3z"/>
	<path class="st15" d="M259.8,268.2c0,0-6.5-7.5-8.3-10.7c-1.8-3.2-1.8-5.1-1.6-6.5c0.1-1.5,0.1-3.2-1-3.5c-1.2-0.3-1.3,0.4-1.5,2
		c-0.1,1.6,0,3.2-2.7,2.3c-2.7-0.9-9.2-3.2-10-1.3c-0.7,1.9,0.9,2.1,0.9,2.1s-1.2,0.1-1.5,1.1c-0.3,0.9,0,1.6,0.9,2
		c0.9,0.4,1.3,0.5,1.3,0.5s-1.8-0.3-2.2,1.1c-0.4,1.3,0.3,2,1,2.3c0,0-1,0.2-1.2,1.2c-0.1,0.7,0.7,1.1,1.8,1.5
		c1.4,0.5,5.7,0.7,9.2,2.9c3.6,2.3,12.2,17,16.5,21.6c4.3,4.5,8.6-7.2,8.6-7.2S264.8,272.8,259.8,268.2z"/>
	<path class="st9" d="M243,254.8l0.1-0.3l-7.4-2l-0.1,0.3L243,254.8z"/>
	<path class="st9" d="M243,258.3l0.1-0.3l-7.4-2l-0.1,0.3L243,258.3z"/>
	<path class="st9" d="M242.1,261.7l0.1-0.3l-7.4-2l-0.1,0.3L242.1,261.7z"/>
	<defs>
		<filter id="Adobe_OpacityMaskFilter_3_" filterUnits="userSpaceOnUse" x="214.4" y="247.2" width="14.5" height="44.4">
			<feColorMatrix  type="matrix" values="1 0 0 0 0  0 1 0 0 0  0 0 1 0 0  0 0 0 1 0"/>
		</filter>
	</defs>
	<mask maskUnits="userSpaceOnUse" x="214.4" y="247.2" width="14.5" height="44.4" id="mask3_0_1_1_">
		<path class="st21" d="M228.9,247.2h-14.5v44.4h14.5V247.2z"/>
	</mask>
	<g class="st22">
		<path class="st15" d="M225.1,285.3c0,0-1-5.3-1.5-12c-0.4-6.7-0.3-9.6,0.3-10.1c0.6-0.5,4.8-0.4,4.8-2.5c0-2.1-3-1.5-3-1.5
			s3.1-0.5,2.8-2.1c-0.3-1.6-2.1-1.3-2.1-1.3s2.8-0.5,2.4-2.3c-0.4-1.7-3.1-1.1-3.1-1.1s2.5-0.4,1.5-2.1c-1-1.7-2.8-0.7-4.9-0.1
			c-2.1,0.5-2.2,0.7-2.4-0.1c-0.1-0.8,0.1-2.9-1.5-2.8c-1.6,0.1-1.9,0.7-1.9,3.6s-0.4,5.6-0.9,8.3c-0.4,2.7-0.6,5.7-0.3,10.7
			c0.3,4.9-3.9,19.4,3.6,21.6C226.3,293.5,225.1,285.3,225.1,285.3z"/>
	</g>
	<path class="st9" d="M222,260.2l4.4-0.9l-0.1-0.3l-4.4,0.9L222,260.2z"/>
	<path class="st9" d="M222.1,256.9l4.4-0.9l-0.1-0.3l-4.4,0.9L222.1,256.9z"/>
	<path class="st9" d="M221.9,253.4l4.4-0.9l-0.1-0.3l-4.4,0.9L221.9,253.4z"/>
	<path class="st9" d="M217.9,251.2l2.2-0.5l-0.1-0.3l-2.2,0.5L217.9,251.2z"/>
	<path class="st23" d="M406.4,333.6l-3.1,11.6l5.7,1.9l3.6-11.4L406.4,333.6z"/>
	<path class="st24" d="M412.2,335l-4,12.8l5.8,1.9l4.3-12.5L412.2,335z"/>
	<path class="st25" d="M418.8,335.9c0,0-0.9,0-2,0.6c-1.1,0.6-7,8.3-3.6,13.2c0,0,0.6,0.3,1.2,0.5c0.7,0.1,1.9,2.1,4,3.3
		c0,0-0.4-1.5,1.2-5.9c1.7-4.4,11.4-27.7,16-27.9c0,0-1.8-1.5-7.3,4.8C423.1,330.4,418.8,335.9,418.8,335.9z"/>
	<path class="st24" d="M418.4,353.3c0,0,1.9,3.3,4.9,2.7c3-0.6,3.9-3.3,4.9-5.7c1-2.3,11.4-27.9,11.4-27.9s-1.1-3.7-4.3-3
		c-3.6,0.8-7,8.5-7,8.5l-9.8,20.2C418.6,348.3,417.6,351.2,418.4,353.3z"/>
	<defs>
		<filter id="Adobe_OpacityMaskFilter_4_" filterUnits="userSpaceOnUse" x="421.1" y="321.6" width="18.9" height="33">
			<feColorMatrix  type="matrix" values="1 0 0 0 0  0 1 0 0 0  0 0 1 0 0  0 0 0 1 0"/>
		</filter>
	</defs>
	<mask maskUnits="userSpaceOnUse" x="421.1" y="321.6" width="18.9" height="33" id="mask4_0_1_1_">
		<path class="st26" d="M421.1,321.6H440v33h-18.9V321.6z"/>
	</mask>
	<g class="st27">
		<path class="st25" d="M421.1,352.2l12.5-26.8c0,0,2.6-4.6,5.2-3.7c2.6,0.9,0.6,5.1-0.3,8.3c-0.9,3.3-9.9,22.4-12.3,24.2
			C424.5,355.5,421.2,353.4,421.1,352.2z"/>
	</g>
	<path class="st28" d="M414.4,350.1c0,0-1.2-3.3,0.2-7.2c1.5-3.9,4.2-7,4.2-7s-2.8-0.9-5.2,4.8c-2.4,5.7-2,8.8,0.9,9.6"/>
	<path class="st29" d="M420.8,336.6l1.1-0.1l0,0.1l0,0.2c0,0.1,0,0.1,0,0.2c0,0.6,0.1,1.3,0,1.9c0,0.4-0.1,0.8-0.2,1.2
		c-0.1,0.6-0.5,1-1.2,1.4l-0.1,0c-0.4,0.2-0.8,0.4-1.5,0.7l-0.7,0.3c-0.6,0.3-1,0.4-1.4,0.6c-0.5,0.3-0.8,0.8-0.9,1.6
		c-0.1,0.6-0.2,1.2-0.1,1.8l0,0.1c0,0,0,0.1,0,0.1l0,0.1l-1.1,0.1l0-0.1c0,0,0-0.1,0-0.1l0,0c0-0.7,0-1.4,0.1-2.2
		c0.2-1.1,0.7-1.9,1.5-2.3c0.4-0.2,0.8-0.4,1.5-0.7l0.5-0.2c1.5-0.6,2.2-1,2.3-1.5c0.1-0.3,0.1-0.6,0.1-1c0-0.6,0-1.2,0-1.8l0-0.1
		c0,0,0-0.1,0-0.1L420.8,336.6L420.8,336.6z"/>
	<path class="st24" d="M275.9,349.2c0,0,1.2,4.9,1.8,5.8c0.6,0.9,11.1,5.6,14.5,5.3c3.4-0.3,9-2.5,9.8-4.1c0.7-1.6-0.3-6.6-1.3-7.5
		C299.6,347.9,275.9,349.2,275.9,349.2z"/>
	<defs>
		<filter id="Adobe_OpacityMaskFilter_5_" filterUnits="userSpaceOnUse" x="223.4" y="299.4" width="184.5" height="47">
			<feColorMatrix  type="matrix" values="1 0 0 0 0  0 1 0 0 0  0 0 1 0 0  0 0 0 1 0"/>
		</filter>
	</defs>
	<mask maskUnits="userSpaceOnUse" x="223.4" y="299.4" width="184.5" height="47" id="mask5_0_1_1_">
		<path class="st30" d="M223.4,299.4H408v47H223.4V299.4z"/>
	</mask>
	<g class="st31">
		<path class="st32" d="M225.2,306.4c0,0-8.3,31.2,10.6,36.1c18.9,4.8,40,0.5,63.2-7.1c19-6.2,18.2-13.3,42.4-6.3
			c17.3,5,61.9,17.4,61.9,17.4L408,333c0,0-66.5-34.3-92.9-33.5c-9.9,0.3-41.1,6.6-41.1,6.6L225.2,306.4z"/>
	</g>
	<defs>
		<filter id="Adobe_OpacityMaskFilter_6_" filterUnits="userSpaceOnUse" x="227.7" y="262" width="55.5" height="65.1">
			<feColorMatrix  type="matrix" values="1 0 0 0 0  0 1 0 0 0  0 0 1 0 0  0 0 0 1 0"/>
		</filter>
	</defs>
	<mask maskUnits="userSpaceOnUse" x="227.7" y="262" width="55.5" height="65.1" id="mask6_0_1_1_">
		<path class="st33" d="M227.7,262h55.5v65.1h-55.5V262z"/>
	</mask>
	<g class="st34">
		<path class="st32" d="M227.7,310.2c0,0,20.7-42.9,28.6-46.8c7.9-3.8,10.9,0.8,11.6,5.9c0.7,5.1,15.3,53.2,15.3,53.2l-17.4,4.6
			L227.7,310.2z"/>
	</g>
	<path d="M255.2,303.2l10.7,22.5l-0.4,0.2l-10.7-22.5L255.2,303.2z"/>
	<path class="st35" d="M280.7,322.5l1.3,4.3c-5.2,0-9.4,2.4-10.5,2.9l-1.2-4.2L280.7,322.5z"/>
	<path class="st24" d="M284.9,335l-11.5,2.8l-2.4-8.6c0,0,0,0,0.2-0.1c1.1-0.6,5.6-2.7,10.9-2.7"/>
	<path class="st36" d="M281.1,352.1c0,0,8,3.3,13.5,1.2c5.4-2.1,6.7-3.5,6.7-3.6s-9-7.9-10.8-8.7c-1.8-0.8-6.3-4.1-8.1-1.2
		c-1.8,2.9-4.5,5.1-4.2,7.2C278.4,349.1,281.1,352.1,281.1,352.1z"/>
	<path class="st37" d="M273.7,339.5c0,0,0.4,7.4,2.5,10.9l5.3,2c0,0-1.5-4-0.3-5.6c1.2-1.6,2-3.3,2-4.4s4.6-2.2,4.6-2.2
		s0.8,1.7,2.1,1.7c1.4,0,8.3,5,8.3,5s-1.7-1.8-3.5-3.7c-1.8-1.9-8-8-8-8L273.7,339.5z"/>
	<path class="st38" d="M273.1,336.4c0,0-1.1,1.2-0.4,2.3s3.1,0.5,5.4-0.2s7.7-2,8.1-2.8c0.4-0.8-0.3-2.5-1.8-2.8
		c0,0,0.4,1.4-0.2,1.8c-0.6,0.4-10.1,3.1-10.5,2.8C273.3,337.3,273.1,336.4,273.1,336.4z"/>
	<path class="st10" d="M281.2,342.4c0,0,3-3.2,6.3-2.3c0,0,1.1,0.2,0.7-0.5c-0.4-0.7-1-0.7-1-0.7s0.1-0.7-0.5-0.8
		c0,0,0.2-0.7-0.6-0.8c0,0-0.3-1.7-2-0.8c-1.8,0.9-5.2,1.5-4.8,2.5c0.4,0.9,0.7,0.5,0.7,0.5s-0.2,0.6,0.3,1.2
		c0.5,0.6,0.4,0.3,0.4,0.3S280.1,342.1,281.2,342.4z"/>
	<path class="st39" d="M279.6,339.7c0,0,0.7-0.6,1.8-0.9"/>
	<path class="st39" d="M286.5,337.1c0,0-1.2,0.2-2,0.6"/>
	<path class="st39" d="M287.8,338.9c0,0-1.7-0.1-2.4,0.2"/>
	<path class="st39" d="M280.2,341.3c0,0,1.1-0.9,2.6-1.4"/>
	<path class="st40" d="M251.8,231.4c0,0,0.3,1.8-2.2,2.4c-2.4,0.7-3.6,0.5-3.7-0.6c0,0,0.2-1.3,0.8-1.4c0.6-0.1,1.2,0.1,1.2,0.1
		s0.5-0.9,1.1-0.9S251,231.6,251.8,231.4z"/>
	<path class="st9" d="M247.5,233c1.8-0.5,3.9-1.1,4.5-1.6c0.5-0.3,0.7-0.3,0.7-0.3c0,0-0.2-0.6-0.9-0.1c-0.7,0.5-3.5,1.2-4.4,1.5
		c-1.6,0.5-1.8,0.4-2,0.3l-0.2,0.4c0.2,0.1,0.4,0.1,0.8,0.1C246.3,233.3,246.8,233.2,247.5,233z"/>
	<path class="st9" d="M248.9,239.8c1.6,0,3.2-0.5,4.3-0.9c1.5-0.5,2.6-1.1,2.6-1.1l-0.2-0.3c0,0-4.2,2.3-7.5,1.9l0,0.3
		C248.3,239.8,248.6,239.8,248.9,239.8z"/>
	<path d="M244.7,220.6l-0.4,0.1l0,0.1c0,0.1,0.1,0.2,0.1,0.4c0.1,0.4,0.2,0.8,0.3,1.3c0.1,0.5,0.2,1,0.3,1.4l0,0.1
		c0.2,1.1,0.2,2,0,2.5l0,0c-1,2.5,0.4,3.7,3.2,2.8l0.1,0l-0.1-0.4c-2.6,0.8-3.6-0.1-2.7-2.2c0.2-0.6,0.2-1.6,0-2.9
		c-0.1-0.5-0.2-0.9-0.3-1.4c-0.1-0.4-0.2-0.8-0.3-1.1l0-0.1c0-0.1,0-0.2-0.1-0.2l-0.1-0.2L244.7,220.6z"/>
	<path d="M255.8,237.8l-0.2-0.4l-0.1,0l-0.1,0c-0.1,0.1-0.2,0.1-0.4,0.2l-0.1,0c-0.5,0.2-1,0.5-1.6,0.7c-1.3,0.5-2.6,0.8-3.7,0.9
		c-0.5,0-1,0.1-1.5,0l-0.1,0l-0.1,0.4c0.5,0.1,1.1,0.1,1.7,0c1.2-0.1,2.5-0.5,3.9-1c0.6-0.2,1.1-0.5,1.6-0.7l0.2-0.1
		c0.1,0,0.2-0.1,0.2-0.1L255.8,237.8L255.8,237.8z"/>
	<path class="st9" d="M246.7,229.6c0.5,0,1-0.1,1.7-0.3l-0.1-0.4c-1.3,0.4-2.3,0.4-2.7-0.1c-0.4-0.4-0.4-1.2,0-2.1
		c0.3-0.6,0.2-1.9-0.2-3.7c-0.3-1.3-0.6-2.4-0.7-2.5l-0.4,0.1c0.4,1.2,1.3,4.7,0.9,5.8c-0.6,1.4-0.3,2.2,0.1,2.6
		C245.5,229.4,246,229.6,246.7,229.6z"/>
	<path class="st9" d="M249.8,223.6c0.1,0,0.2,0,0.2-0.1c0,0,0.6-0.5,1.4-0.5c0.8,0,1.4,0.4,1.4,0.4c0.1,0.1,0.4,0.1,0.5-0.1
		c0.1-0.1,0.1-0.4-0.1-0.5c0,0-0.7-0.5-1.8-0.6c-1.1,0-1.8,0.6-1.8,0.6c-0.1,0.1-0.1,0.3,0,0.5C249.6,223.5,249.7,223.6,249.8,223.6
		z"/>
	<path class="st9" d="M255.5,221.9c0,0-1.3-1.5-2.4-2.2c-0.7-0.4-5.1-1.3-5.3-0.4c-0.2,0.9,0.3,0.9,2.1,1.2c1.8,0.3,2.6,0.4,3.5,0.8
		C254.3,221.8,255.3,222.4,255.5,221.9z"/>
	<path class="st9" d="M238.5,223c0,0-0.2-0.9,0.1-1.5c0.2-0.6,3-3.1,3.8-2.9c1.3,0.4,0.8,1-0.8,2.1c-1.3,0.9-1.8,1.2-2.3,1.9
		C238.5,223.3,238.6,223.1,238.5,223z"/>
	<path class="st9" d="M240.3,224.6c0.1,0,0.2,0,0.2-0.1c0,0,0.6-0.5,1.4-0.5c0.8,0,1.4,0.4,1.4,0.4c0.1,0.1,0.4,0.1,0.5-0.1
		c0.1-0.1,0.1-0.4-0.1-0.5c0,0-0.7-0.5-1.8-0.6c-1.1,0-1.8,0.6-1.8,0.6c-0.1,0.1-0.1,0.3,0,0.5C240.1,224.6,240.2,224.6,240.3,224.6
		z"/>
	<path class="st41" d="M262.1,218.7c0,0-1-3.9-9.1-7.7c-6.6-3.1-14.2,1.7-15,2.9c-0.6,0.9-1.1-10.7,11.1-13.4
		c10.4-2.3,18.8,8.9,15.4,19C264.6,219.5,264.1,218.3,262.1,218.7z"/>
	<defs>
		<filter id="Adobe_OpacityMaskFilter_7_" filterUnits="userSpaceOnUse" x="250" y="190.9" width="18.7" height="17.3">
			<feColorMatrix  type="matrix" values="1 0 0 0 0  0 1 0 0 0  0 0 1 0 0  0 0 0 1 0"/>
		</filter>
	</defs>
	<mask maskUnits="userSpaceOnUse" x="250" y="190.9" width="18.7" height="17.3" id="mask7_0_1_1_">
		<path class="st42" d="M268.8,190.9H250v17.3h18.7V190.9z"/>
	</mask>
	<g class="st43">
		<path class="st41" d="M251.3,193.7c-2.5,3.5-0.9,9,3.6,12.2c4.5,3.2,10.2,3,12.7-0.5c2.5-3.5,0.9-9-3.6-12.2
			C259.5,190,253.8,190.2,251.3,193.7z"/>
	</g>
	<defs>
		<filter id="Adobe_OpacityMaskFilter_8_" filterUnits="userSpaceOnUse" x="252.8" y="210.2" width="9.8" height="31.9">
			<feColorMatrix  type="matrix" values="1 0 0 0 0  0 1 0 0 0  0 0 1 0 0  0 0 0 1 0"/>
		</filter>
	</defs>
	<mask maskUnits="userSpaceOnUse" x="252.8" y="210.2" width="9.8" height="31.9" id="mask8_0_1_1_">
		<path class="st44" d="M262.6,210.2h-9.8v31.9h9.8V210.2z"/>
	</mask>
	<g class="st45">
		<path class="st41" d="M260.6,212.3c0,0,3.1,7.3,0.6,12c-2.5,4.7,3.3,13.5,0.8,17.8c0,0,0.2-3.5-2.1-8c-2.3-4.5-3.3-6.3-1.9-9.8
			c1.4-3.5-2.8-12.7-5.2-14.1L260.6,212.3z"/>
	</g>
	<path class="st9" d="M248.3,222.2c0,2.1,1.7,3.8,3.8,3.8c2.1,0,3.8-1.7,3.8-3.8c0-2.1-1.7-3.8-3.8-3.8
		C250,218.4,248.3,220.1,248.3,222.2z"/>
	<path class="st32" d="M252.1,218.8c1.9,0,3.4,1.5,3.4,3.4c0,1.9-1.5,3.4-3.4,3.4s-3.4-1.5-3.4-3.4
		C248.7,220.4,250.2,218.8,252.1,218.8z M252.1,226.4c2.3,0,4.2-1.9,4.2-4.2c0-2.3-1.9-4.2-4.2-4.2c-2.3,0-4.2,1.9-4.2,4.2
		C247.9,224.5,249.8,226.4,252.1,226.4z"/>
	<path class="st9" d="M237.8,223.3c0,2.1,1.7,3.8,3.8,3.8c2.1,0,3.8-1.7,3.8-3.8c0-2.1-1.7-3.8-3.8-3.8
		C239.4,219.5,237.8,221.2,237.8,223.3z"/>
	<path class="st32" d="M241.5,219.9c1.9,0,3.4,1.5,3.4,3.4s-1.5,3.4-3.4,3.4s-3.4-1.5-3.4-3.4S239.7,219.9,241.5,219.9z
		 M241.5,227.4c2.3,0,4.2-1.9,4.2-4.2c0-2.3-1.9-4.2-4.2-4.2c-2.3,0-4.2,1.9-4.2,4.2C237.4,225.6,239.2,227.4,241.5,227.4z"/>
	<path class="st32" d="M256.2,222l5.6-2.3l-0.3-0.7l-5.6,2.3L256.2,222z"/>
	<path class="st32" d="M245.5,223.2l2.9-0.3l-0.1-0.8l-3,0.3L245.5,223.2z"/>
</g>
</svg>
