<?xml version="1.0" encoding="utf-8"?>
<!-- Generator: Adobe Illustrator 24.2.0, SVG Export Plug-In . SVG Version: 6.00 Build 0)  -->
<svg version="1.1" id="Capa_1" xmlns="http://www.w3.org/2000/svg" xmlns:xlink="http://www.w3.org/1999/xlink" x="0px" y="0px"
	 viewBox="0 0 1558.3 494.5" style="enable-background:new 0 0 1558.3 494.5;" xml:space="preserve">
<style type="text/css">
	.st0{fill:#99C840;}
	.st1{fill:#4D4D4D;}
	.st2{fill:#4C4C4C;}
</style>
<g>
	<path class="st0" d="M303.4,358.9c19,18.9,37.4,37.2,57.1,57c-4.9,4.3-9.6,8-13.9,12.1c-15,14.7-29.6,29.7-44.7,44.3
		c-30.7,29.7-79.3,29.7-109.6-0.2c-31.8-31.3-63.2-63-94.7-94.6c-24.6-24.6-49.3-49.2-73.8-73.8C-7.9,271.7-8,222.8,23.7,191
		C79.3,135.2,135.1,79.4,190.9,23.8c32-31.9,80.9-31.7,112.9,0.3c37.6,37.5,75.5,74.8,112.6,112.9c29.7,30.4,29.6,78.2,0,108.8
		c-31.3,32.3-63.4,63.8-95.2,95.6C315.4,347.1,309.5,352.8,303.4,358.9z M247.7,81C192,136.7,136.3,192.3,81.3,247.3
		c55.3,55.3,110.9,110.9,165.6,165.7c18-18,36.5-36.4,55.4-55.4c-17.9-17.7-36.3-36-55.5-55c37.4-37.3,74.5-74.4,111.4-111.1
		C321,154.3,284,117.4,247.7,81z"/>
	<path class="st1" d="M591.1,306.4c0,29.6,0,58.4,0,87.4c-16.3,0-32.2,0-48.4,0c0-97.2,0-194,0-291.3c1.2-0.1,2.3-0.2,3.4-0.2
		c40,0,80-0.2,120,0.1c25.5,0.2,48.7,7.7,67.6,25.3c25.9,23.9,35.1,54.4,31.9,88.7c-2.8,30-16.2,54.6-41.2,72.2
		c-16.5,11.6-35.2,17.3-55.3,17.7c-24,0.5-48,0.2-72,0.2C595.4,306.4,593.6,306.4,591.1,306.4z M590.6,263.6
		c1.1,0.2,1.7,0.3,2.4,0.3c23.8,0,47.6,0.1,71.5-0.1c10.3-0.1,20.1-2.7,28.8-8.6c19.5-13.2,27-32.2,26.1-55
		c-1.3-33.4-24.5-55.9-57.8-56c-22.2-0.1-44.3,0-66.5,0c-1.4,0-2.9,0.2-4.5,0.3C590.6,184.3,590.6,223.8,590.6,263.6z"/>
	<path class="st1" d="M1115.7,362c0,9.8,0.1,19.1-0.1,28.5c0,0.9-1.3,2.4-2.2,2.6c-11.4,1.8-22.8,2.9-34.2-0.3
		c-13.9-4-21.3-13.8-21.9-28.7c-0.1-2.7,0-5.5-0.4-8.4c-5.2,9.5-11.5,17.8-19.9,24.6c-32.7,26.9-98.2,23.5-124.6-26.5
		c-18.7-35.3-21.3-72.3-4.8-109.2c13.2-29.6,37.9-45.8,68.8-52.3c39.8-8.4,78-1.6,115,14.1c2.9,1.2,2.6,3.3,2.6,5.6
		c0,37.3,0,74.6,0,112c0,6.7-0.1,13.3,0.1,20c0.3,13.7,5,18.1,18.7,18C1113.6,362,1114.3,362,1115.7,362z M1051.5,267.3
		c-0.4,0-0.9-0.1-1.3-0.1c0-9.7-0.2-19.3,0.1-29c0.1-3.5-1.2-4.9-4.3-6c-16.4-6-33.3-8.1-50.6-5.6c-24.6,3.5-41.7,16.8-49,41
		c-5.2,17.1-4.9,34.5,0.5,51.6c10.8,34,41.2,41.8,65.5,35.2c19.9-5.4,30.6-20.1,34.3-39.1C1050,299.6,1050.1,283.3,1051.5,267.3z"/>
	<path class="st1" d="M1315.5,230.3c0-12.7,0-24.7,0-36.9c53.6,0,107,0,161.8,0c-1.2,3.5-1.7,6.9-3.4,9.5
		c-32.3,49.1-64.7,98.1-97,147.2c-0.8,1.2-1.4,2.4-2.6,4.4c34.3,0,67.9,0,101.7,0c0,13.3,0,26.1,0,39.1c-55.5,0-110.9,0-166.5,0
		c-0.6-4.9-0.4-9.2,2.5-13.8c31.4-49.1,62.5-98.3,96.4-145.8c0.7-1,1.4-2.1,2.4-3.8C1378.6,230.3,1347.2,230.3,1315.5,230.3z"/>
	<path class="st1" d="M1166.3,230.3c-13.8,0-26.9,0-40.5,0c0-12.3,0-24.3,0-36.8c13.3,0,26.6,0,40.3,0c0-16.5,0-32.6,0-48.9
		c15.1,0,29.7,0,44.8,0c0,16,0,32,0,48.7c23.4,0,46.2,0,69.4,0c0,12.5,0,24.4,0,36.9c-22.9,0-45.8,0-69.1,0c0,1.8,0,3.1,0,4.4
		c0,27.7-0.1,55.3,0.1,83c0,6.1,0.6,12.3,2,18.3c4.4,19.7,17.6,29.6,37.7,27.7c8.9-0.8,17.6-3.2,26.4-5c2.2-0.5,4.4-1.3,7.1-2.2
		c1.5,11.4,3,22.6,4.6,34.2c-25.9,7.5-51.5,12.8-77.8,4.5c-24-7.6-36.8-25.4-41.7-49.2c-2.1-10.2-2.8-20.8-3-31.2
		c-0.4-26.3-0.1-52.7-0.1-79C1166.3,234.1,1166.3,232.5,1166.3,230.3z"/>
	<path class="st2" d="M796.3,102.4c15.2,0,29.8,0,44.9,0c0,1.8,0,3.4,0,5c0,72.1,0,144.3,0.1,216.4c0,6.4,0.7,13,2.1,19.3
		c2.6,11.8,10.2,17.7,22.4,18.1c6.1,0.2,12.2,0,18.8,0c0.5,10.7,1.1,22.1,1.6,33.8c-16.5,2.7-32.7,4.4-48.9,1
		c-22.1-4.7-33.6-19.7-37.9-40.8c-1.7-8.4-3-17.1-3-25.7c-0.3-74.8-0.2-149.6-0.2-224.4C796.2,104.4,796.2,103.6,796.3,102.4z"/>
	<path class="st2" d="M1553.3,393.8c-15,0-29.8,0-44.8,0c0-66.8,0-133.3,0-200.1c14.9,0,29.6,0,44.8,0
		C1553.3,260.1,1553.3,326.6,1553.3,393.8z"/>
	<path class="st1" d="M1531.5,155.4c-16.2,0.1-27.7-11-27.9-26.8c-0.2-15.5,11.1-26.7,27.2-26.9c16-0.2,27.4,10.8,27.4,26.6
		C1558.3,144.3,1547.4,155.4,1531.5,155.4z"/>
</g>
</svg>
