<?xml version="1.0" encoding="utf-8"?>
<!-- Generator: Adobe Illustrator 24.2.0, SVG Export Plug-In . SVG Version: 6.00 Build 0)  -->
<svg version="1.1" id="Capa_1" xmlns="http://www.w3.org/2000/svg" xmlns:xlink="http://www.w3.org/1999/xlink" x="0px" y="0px"
	 viewBox="0 0 800 800" style="enable-background:new 0 0 800 800;" xml:space="preserve">
<style type="text/css">
	.st0{fill:#FFFFFF;}
</style>
<path class="st0" d="M171.9,228.9h451.6c19.5,0,34.4-14.8,34.4-34.4c0-18.8-14.9-33.6-34.4-33.6H171.9c-19.5,0-34.4,14.8-34.4,33.6
	C137.5,214.1,152.4,228.9,171.9,228.9z M171.9,365.6h451.6c19.5,0,34.4-14.8,34.4-34.4c0-18.8-14.9-33.6-34.4-33.6H171.9
	c-19.5,0-34.4,14.8-34.4,33.6C137.5,350.8,152.4,365.6,171.9,365.6z M171.9,502.4h451.6c19.5,0,34.4-14.9,34.4-33.6
	c0-19.5-14.9-34.4-34.4-34.4H171.9c-19.5,0-34.4,14.9-34.4,34.4C137.5,487.5,152.4,502.4,171.9,502.4z M171.9,639.1h451.6
	c19.5,0,34.4-14.8,34.4-33.6c0-19.5-14.9-34.4-34.4-34.4H171.9c-19.5,0-34.4,14.8-34.4,34.4C137.5,624.2,152.4,639.1,171.9,639.1z"
	/>
</svg>
