<?xml version="1.0" encoding="utf-8"?>
<!-- Generator: Adobe Illustrator 24.2.0, SVG Export Plug-In . SVG Version: 6.00 Build 0)  -->
<svg version="1.1" id="Layer_1" xmlns="http://www.w3.org/2000/svg" xmlns:xlink="http://www.w3.org/1999/xlink" x="0px" y="0px"
	 viewBox="0 0 800 800" style="enable-background:new 0 0 800 800;" xml:space="preserve">
<style type="text/css">
	.st0{fill:#0091F1;}
</style>
<path class="st0" d="M684.9,273.6c0.3,6.1,0.3,12.6,0.3,19c0,193.9-147.6,417.7-417.7,417.7c-82.9,0-160.2-24.3-224.9-65.8
	c11.4,1.4,23.2,2,35.2,2c68.6,0,132-23.4,182.2-62.8c-64.2-1.1-118.6-43.5-137-101.8c8.9,1.7,18.1,2.5,27.6,2.5
	c13.4,0,26.5-1.7,38.8-5.3c-67.2-13.4-117.7-72.8-117.7-144v-1.7c19.8,10.9,42.4,17.6,66.4,18.4c-39.3-26.2-65.3-71.4-65.3-122.2
	c0-26.8,7.3-52.2,19.8-73.9c72.5,89,180.5,147.3,302.4,153.5c-2.5-10.6-3.9-21.8-3.9-33.5c0-80.9,65.8-146.8,146.8-146.8
	c42.1,0,80.4,17.9,107.1,46.3c33.5-6.7,64.7-18.7,93.2-35.7c-10.9,34.3-34.3,63.1-64.5,81.2c29.6-3.6,58-11.4,84.3-23.2
	C738.5,227,713.6,252.7,684.9,273.6z"/>
</svg>
