<?xml version="1.0" encoding="utf-8"?>
<!-- Generator: Adobe Illustrator 24.2.0, SVG Export Plug-In . SVG Version: 6.00 Build 0)  -->
<svg version="1.1" id="Capa_1" xmlns="http://www.w3.org/2000/svg" xmlns:xlink="http://www.w3.org/1999/xlink" x="0px" y="0px"
	 viewBox="0 0 1823.5 1447" style="enable-background:new 0 0 1823.5 1447;" xml:space="preserve">
<style type="text/css">
	.st0{fill:#C1C1C1;}
	.st1{fill:#6C5E81;}
	.st2{fill:#3B314A;}
	.st3{fill:url(#SVGID_1_);}
	.st4{fill:url(#SVGID_2_);}
	.st5{fill:#642D78;}
	.st6{fill:#FFFFFF;}
	.st7{fill:#F4F2EA;}
	.st8{opacity:0.28;}
	.st9{fill:#E76A53;}
	.st10{opacity:0.68;fill:#FF7F4C;enable-background:new    ;}
	.st11{fill:#FFA283;}
	.st12{fill:url(#SVGID_3_);}
	.st13{fill:url(#SVGID_4_);}
	.st14{fill:#A16EB0;}
	.st15{opacity:0.35;fill:#642D78;enable-background:new    ;}
	.st16{fill:#1A3140;}
	.st17{fill:url(#SVGID_5_);}
	.st18{opacity:0.22;fill:#6C5E81;enable-background:new    ;}
	.st19{fill:#F8A492;}
	.st20{fill:url(#SVGID_6_);}
	.st21{fill:#F7A491;}
	.st22{fill:#F47458;}
	.st23{fill:#FE875E;}
	.st24{fill:#880136;}
	.st25{fill:url(#SVGID_7_);}
	.st26{fill:url(#SVGID_8_);}
</style>
<g id="Слой_2">
</g>
<g id="Layer_1">
	<g>
		<g>
			<path class="st0" d="M1644.3,1321.7H192.6c-8.3,0-15-6.7-15-15l0,0c0-8.3,6.7-15,15-15h1451.7c8.3,0,15,6.7,15,15l0,0
				C1659.3,1315,1652.6,1321.7,1644.3,1321.7z"/>
		</g>
		<g>
			<g>
				<g>
					<path class="st1" d="M1481.3,1101.9c13.4,0,24.9-7.6,29.7-18.4c0.1-0.2,0.2-0.4,0.3-0.7c0.1-0.3,0.3-0.7,0.4-1
						c0.3-0.8,0.6-1.6,0.8-2.5c0.1-0.4,0.2-0.7,0.3-1.1c0.1-0.4,0.2-0.7,0.2-1.1c0.2-0.9,0.3-1.8,0.4-2.8c0-0.4,0.1-0.8,0.1-1.3
						c0-0.4,0-0.9,0-1.3l4.6-110.2c-0.1,0.3-0.1,0.4-0.1,0.4c-2.5,1.4-5,2.9-7.5,4.3c-4.4,2.5-8.9,5-13.5,7.4
						c3.7-15.1,6.5-33.4,6.6-53.6c-5.2,3.1-11.7,6.8-19.4,11c-12.8,7-29,15.3-48.7,24.4c-0.3,11.5-1.5,30.5-5.2,50
						c-25.8,10.9-53.8,21.4-84.3,31.1c3.4-11.7,5.8-26.8,5.2-45.9c-28.7,10.8-61.1,21.8-97.4,32.5c0.8,8,0.9,17.1-0.4,26.6
						c-0.6,4.2-1.4,8.4-2.6,12.6c-35.2,8-73,15.1-113.6,20.9c2.1-9.5,2.4-19.7-0.4-30c-30.2,6.6-62.1,12.8-96,18.5
						c-0.5,7-1.8,14.8-4.6,22.9c0,0,0,0,0,0c-33.4,2.8-68.3,4.8-105,6c0.5-2.1,0.9-4.1,1.2-6c0.5-2.9,0.8-5.6,0.9-8
						c81.7-9.3,154.5-22.2,218.7-36.9c170.9-39.1,280.1-90.6,332.3-119c13-7.1,22.4-12.7,28.4-16.4c4.3-2.6,6.8-4.2,7.5-4.6
						c0,0,0,0,0,0l13-311.2c0,0,0,0,0,0c-0.1,0.4-0.1,0.6-0.1,0.6c-2.4-0.4-4.8-0.9-7.3-1.3c-8.7-1.6-17.4-3.1-25.9-4.7
						c-27.8-5.2-54.7-10.5-80.6-16c23.7-11.2,53.6-30.6,80.4-63.6c1.4,0.1,2.7,0.2,4,0.3c11.3,0.8,20,1.2,25.7,1.5
						c4.8,0.2,7.3,0.3,7.3,0.3c0,0,0,0,0.1,0l6-145c0-0.2,0-0.5,0-0.7c0-0.2,0-0.4,0-0.7c0-0.4,0-0.7-0.1-1.1
						c-0.1-0.7-0.1-1.3-0.2-2c-0.1-0.4-0.1-0.8-0.2-1.1c-0.1-0.3-0.1-0.6-0.2-0.9c0-0.1,0-0.2-0.1-0.3c-0.1-0.3-0.2-0.7-0.3-1
						c-0.1-0.5-0.3-1-0.5-1.5c-0.1-0.3-0.2-0.7-0.4-1c-1.1-2.7-2.5-5.2-4.3-7.4c-0.2-0.2-0.3-0.5-0.5-0.7c-0.4-0.5-0.8-1-1.3-1.4
						c-0.4-0.4-0.7-0.8-1.1-1.1c-0.5-0.4-0.9-0.8-1.4-1.2c-0.2-0.2-0.5-0.4-0.8-0.6c-0.4-0.3-0.8-0.6-1.2-0.9
						c-5.4-4-12.2-6.3-19.6-6.3H929.8c0,0,0.1,0.1,0.1,0.1c7.5,7.1,15.5,14,24,20.5c5.5,4.2,11.1,8.3,16.9,12.3
						c-18.6,4.5-47.7,8.9-81,4.5c17.5,13.3,37.8,26.7,61,40.1c18.5-3.6,39.5-9.6,60.8-19.9c1.6,0.8,3.2,1.7,4.8,2.5
						c0.8,0.4,1.6,0.8,2.3,1.2c0.7,0.4,1.5,0.8,2.2,1.2c0.9,0.5,1.9,1,2.8,1.4c1.5,0.7,2.9,1.5,4.4,2.2c1.1,0.6,2.2,1.1,3.4,1.7
						c0.4,0.2,0.8,0.4,1.2,0.6c1.1,0.5,2.1,1,3.2,1.5c3.1,1.5,6.2,2.9,9.3,4.4c0.8,0.4,1.6,0.7,2.4,1.1c1.2,0.6,2.5,1.1,3.7,1.7
						c0.3,0.1,0.6,0.3,0.9,0.4c1.8,0.8,3.5,1.6,5.3,2.3c1.7,0.8,3.5,1.5,5.2,2.2c1.2,0.5,2.4,1,3.6,1.5c3.5,1.5,7,2.9,10.5,4.3
						c1.7,0.7,3.4,1.4,5.1,2c0.3,0.1,0.6,0.2,0.9,0.3c1.4,0.5,2.7,1.1,4.1,1.6c1,0.4,2,0.8,3,1.1c2.1,0.8,4.1,1.6,6.2,2.3
						c1.4,0.5,2.9,1.1,4.3,1.6c1.5,0.6,3,1.1,4.6,1.6c1.1,0.4,2.2,0.8,3.3,1.2c4,1.4,8.1,2.8,12.1,4.2c1.8,0.6,3.6,1.2,5.4,1.8
						c2,0.7,4,1.3,6,2c1.4,0.5,2.8,0.9,4.2,1.3c2.3,0.7,4.6,1.5,7,2.2c1,0.3,2.1,0.6,3.1,1c7.9,2.4,15.9,4.8,23.9,7
						c3.2,0.9,6.4,1.8,9.6,2.7c2.6,0.7,5.3,1.4,7.9,2.1c8.7,2.3,17.3,4.5,26,6.6c1.5,0.4,3.1,0.8,4.6,1.1c0.6,0.2,1.3,0.3,1.9,0.4
						c1.4,0.3,2.7,0.7,4.1,1c4.4,1,8.9,2,13.3,3c3.2,0.7,6.4,1.4,9.6,2.1c1.6,0.3,3.2,0.7,4.8,1c6.9,1.5,13.7,2.8,20.5,4.2
						c3.9,0.8,7.9,1.5,11.8,2.3c5,0.9,9.9,1.8,14.8,2.7c3,0.5,5.9,1,8.9,1.6c0.1,0,0.3,0,0.4,0.1c3.5,0.6,6.9,1.2,10.3,1.8
						c1.7,0.3,3.4,0.6,5.1,0.8c1.7,0.3,3.4,0.6,5.1,0.8c2.9,0.5,5.7,0.9,8.5,1.4c1.4,0.2,2.8,0.4,4.1,0.6c0.3,0,0.6,0.1,0.9,0.1
						c2.5,0.4,4.9,0.8,7.3,1.1c1.4,0.2,2.7,0.4,4.1,0.6c0,0,0.1,0,0.2,0c2.4,0.4,4.8,0.7,7.2,1c2,0.3,4,0.6,6,0.8
						c4,0.6,7.9,1.1,11.8,1.6c1.6,0.2,3.1,0.4,4.6,0.6c8.1,1.1,15.9,2,23.6,2.9c-17.2,14.3-52.3,38.7-98.8,46.6
						c-7.9-2-15.7-4-23.4-6c-3.5-0.9-7-1.9-10.5-2.8c-15.6-4.2-30.7-8.4-45.4-12.7c-2.9-0.9-5.8-1.7-8.6-2.5
						c-29.3-8.7-56.7-17.5-82.5-26.5c20.8-3.1,43.7-12.1,63.7-32.8c-22.3-5.6-44.5-11.8-66.4-18.8c-19.7,8.1-47.7,15.4-86.5,17.2h0
						c-80.7-34.6-139.2-70.4-179.4-105.1c-8-6.9-15.2-13.7-21.8-20.5c0,0,0-0.1,0-0.1h-409c-17.7,0-32.1,13.5-32.1,30l19.4,700.9
						c0,16.6,14.4,30,32.1,30 M688.6,1101.8c56.5-0.7,110-3.1,160.5-7h0.1c-4,0.3-8,0.6-12,0.9c-1.1,2.1-2.3,4.1-3.6,6.1"/>
				</g>
				<g>
					<path class="st2" d="M849,1094.8c-50.5,3.9-104,6.3-160.5,7h-231c-11.1,0-20.9-5.3-26.7-13.3c5.4,4,12.2,6.3,19.6,6.3H849z"/>
					<path class="st2" d="M1518,962c0,0,0-0.1,0.1-0.4l-4.6,110.2c0,0.4,0,0.8,0,1.3c0,0.4,0,0.8-0.1,1.3c-0.1,0.9-0.2,1.9-0.4,2.8
						c-0.1,0.4-0.2,0.7-0.2,1.1c-0.1,0.4-0.2,0.7-0.3,1.1c-0.2,0.8-0.5,1.7-0.8,2.5c-0.1,0.3-0.3,0.7-0.4,1
						c-0.1,0.2-0.2,0.5-0.3,0.7c-4.9,10.8-16.3,18.3-29.6,18.3H833.5c1.3-2,2.5-4,3.6-6.1c4-0.3,8-0.6,12-0.9h83.2
						c-0.3,1.9-0.7,3.9-1.2,6c36.7-1.1,71.6-3.2,105-6c0,0,0,0,0,0h438.1c17.7,0,32.1-13.5,32.1-30l4.1-98.5
						C1513,964.9,1515.5,963.4,1518,962z"/>
					<path class="st2" d="M1533.2,598.8l-13,311.2c0,0,0,0,0,0c-0.7,0.4-3.2,2-7.5,4.6l13.2-316.5c2.4,0.4,4.8,0.9,7.3,1.3
						C1533.1,599.4,1533.1,599.2,1533.2,598.8z"/>
					<path class="st2" d="M1542.7,370.9l-6,145c0,0,0,0-0.1,0c0,0-2.5-0.1-7.3-0.3l6.3-151.7c0-6.1-2-11.8-5.4-16.6
						c1.2,0.9,2.3,1.8,3.4,2.8c0.4,0.4,0.8,0.7,1.1,1.1c0.4,0.5,0.9,0.9,1.3,1.4c0.2,0.2,0.4,0.4,0.5,0.7c1.8,2.3,3.2,4.8,4.3,7.4
						c0.1,0.3,0.3,0.7,0.4,1c0.2,0.5,0.3,1,0.5,1.5c0.1,0.3,0.2,0.7,0.3,1c0,0.1,0,0.2,0.1,0.3c0.1,0.3,0.2,0.6,0.2,0.9
						c0.1,0.4,0.2,0.8,0.2,1.1c0.1,0.6,0.2,1.3,0.2,2c0,0.3,0.1,0.7,0.1,1.1c0,0.2,0,0.4,0,0.7
						C1542.7,370.4,1542.7,370.7,1542.7,370.9z"/>
				</g>
				<g>
					<linearGradient id="SVGID_1_" gradientUnits="userSpaceOnUse" x1="450.5" y1="705.75" x2="1509.3" y2="705.75">
						<stop  offset="0" style="stop-color:#00BDFF"/>
						<stop  offset="1" style="stop-color:#0800BF"/>
					</linearGradient>
					<path class="st3" d="M1419.3,577.4c25.9,5.5,52.8,10.8,80.6,16L1484.2,931c-52.1,28.4-161.4,79.8-332.3,119H502.1
						c-17.8-0.1-32.1-13.5-32.1-30l-19.5-628.3c0-16.5,14.4-30,32.1-30h386.3c40.2,34.7,98.7,70.5,179.4,105.1h0
						c38.8-1.8,66.8-9.1,86.5-17.2c21.9,7,44.1,13.2,66.4,18.8c-20,20.7-42.9,29.7-63.7,32.8c25.8,9,53.3,17.8,82.5,26.5
						c2.9,0.9,5.7,1.7,8.6,2.5c14.7,4.3,29.8,8.5,45.4,12.7c3.5,0.9,7,1.9,10.5,2.8c7.7,2,15.5,4,23.4,6
						c46.6-7.9,81.6-32.3,98.8-46.6c-7.6-0.9-15.5-1.9-23.6-2.9c-1.5-0.2-3.1-0.4-4.6-0.6c-3.9-0.5-7.8-1-11.8-1.6
						c-2-0.3-4-0.6-6-0.8c-2.4-0.3-4.8-0.7-7.2-1c-0.1,0-0.1,0-0.2,0c-1.4-0.2-2.7-0.4-4.1-0.6c-2.4-0.4-4.9-0.7-7.3-1.1
						c-0.3,0-0.6-0.1-0.9-0.1c-1.4-0.2-2.8-0.4-4.1-0.6c-2.8-0.4-5.7-0.9-8.5-1.4c-1.7-0.3-3.4-0.5-5.1-0.8
						c-1.7-0.3-3.4-0.6-5.1-0.8c-3.4-0.6-6.9-1.2-10.3-1.8c-0.1,0-0.3,0-0.4-0.1c-2.9-0.5-5.9-1-8.9-1.6c-4.9-0.9-9.8-1.8-14.8-2.7
						c-3.9-0.7-7.8-1.5-11.8-2.3c-6.8-1.3-13.7-2.7-20.5-4.2c-1.6-0.3-3.2-0.7-4.8-1c-3.2-0.7-6.4-1.4-9.6-2.1c-4.4-1-8.8-2-13.3-3
						c-1.4-0.3-2.7-0.6-4.1-1c-0.6-0.1-1.2-0.3-1.9-0.4c-1.5-0.4-3.1-0.7-4.6-1.1c-8.7-2.1-17.4-4.3-26-6.6
						c-2.6-0.7-5.3-1.4-7.9-2.1c-3.2-0.9-6.4-1.8-9.6-2.7c-8-2.2-16-4.6-23.9-7c-1-0.3-2.1-0.6-3.1-1c-2.3-0.7-4.6-1.4-7-2.2
						c-1.4-0.4-2.8-0.9-4.2-1.3c-2-0.6-4-1.3-6-2c-1.8-0.6-3.6-1.2-5.4-1.8c-4.1-1.4-8.1-2.7-12.1-4.2c-1.1-0.4-2.2-0.8-3.3-1.2
						c-1.5-0.5-3.1-1.1-4.6-1.6c-1.4-0.5-2.9-1.1-4.3-1.6c-2.1-0.8-4.2-1.5-6.2-2.3c-1-0.4-2-0.8-3-1.1c-1.4-0.5-2.7-1-4.1-1.6
						c-0.3-0.1-0.6-0.2-0.9-0.3c-1.7-0.7-3.4-1.3-5.1-2c-3.5-1.4-7-2.8-10.5-4.3c-1.2-0.5-2.4-1-3.6-1.5c-1.8-0.7-3.5-1.5-5.2-2.2
						c-1.8-0.8-3.6-1.5-5.3-2.3c-0.3-0.1-0.6-0.3-0.9-0.4c-1.2-0.5-2.5-1.1-3.7-1.7c-0.8-0.4-1.6-0.7-2.4-1.1
						c-3.1-1.4-6.3-2.9-9.3-4.4c-1.1-0.5-2.1-1-3.2-1.5c-0.4-0.2-0.8-0.4-1.2-0.6c-1.1-0.5-2.3-1.1-3.4-1.7
						c-1.5-0.7-2.9-1.5-4.4-2.2c-1-0.5-1.9-1-2.8-1.4c-0.7-0.4-1.5-0.8-2.2-1.2c-0.8-0.4-1.6-0.8-2.3-1.2c-1.6-0.8-3.2-1.7-4.8-2.5
						c-21.3,10.3-42.3,16.3-60.8,19.9c-23.2-13.4-43.5-26.8-61-40.1c33.4,4.4,62.4,0,81-4.5c-5.8-4-11.5-8.1-16.9-12.3h523.3
						c17.7,0,32.1,13.4,32.1,30l-5.7,122.5c-1.3-0.1-2.6-0.2-4-0.3C1472.9,546.8,1443,566.2,1419.3,577.4z"/>
					<linearGradient id="SVGID_2_" gradientUnits="userSpaceOnUse" x1="650.8469" y1="990.48" x2="881.6768" y2="990.48">
						<stop  offset="0" style="stop-color:#01AAF9"/>
						<stop  offset="1" style="stop-color:#0713C5"/>
					</linearGradient>
					<path class="st4" d="M1484.2,931.1l-2.3,50.5v0l-1.8,38.3c0,16.5-14.4,30-32.1,30h-194.6c1.3-9.5,1.2-18.6,0.4-26.6
						c36.3-10.7,68.7-21.7,97.4-32.5c0.6,19.1-1.8,34.2-5.2,45.9c30.5-9.7,58.6-20.2,84.3-31.1c3.7-19.6,4.9-38.6,5.2-50
						C1455.2,946.3,1471.4,938,1484.2,931.1z"/>
				</g>
				<g>
					<path class="st5" d="M794.5,524.8h-52.2L616.3,705v35h127.2v74.5h51V740h38.3v-45.1h-38.3V524.8z M676.8,694.9l58.4-81.2
						l0.4-0.6c2.8-4.7,5.4-9.2,8-13.5c-0.1,4-0.1,8-0.1,11.9v83.4L676.8,694.9L676.8,694.9z"/>
					<path class="st5" d="M973.4,520.1c-63.6,0-103.2,57.6-103.2,150.4c0.9,91.7,38.6,148.6,98.6,148.6
						c65.6,0,103.2-55.6,103.2-152.5C1071.9,574.9,1035.1,520.1,973.4,520.1z M970.9,774.5c-29.3,0-47.6-39.7-47.6-103.6
						c0-64.5,18.8-106.1,48-106.1c41.4,0,47.6,64.9,47.6,103.6C1018.8,708,1012.6,774.5,970.9,774.5z"/>
					<path class="st5" d="M1284.6,694.9V545.6c-3.5-0.9-7-1.9-10.5-2.8c-15.6-4.2-30.7-8.4-45.4-12.7L1106.4,705v35h127.2v74.5h51
						V740h38.3v-45.1H1284.6z M1233.6,611.5v83.4h-66.7l56.3-78.3l2.1-2.9l0.4-0.6c2.8-4.7,5.4-9.2,8-13.5
						C1233.6,603.6,1233.6,607.6,1233.6,611.5z"/>
					<path class="st6" d="M784,524.8h-52.2L605.9,705v35h127.2v74.5h51V740h38.3v-45.1H784V524.8z M666.4,694.9l58.4-81.2l0.4-0.6
						c2.8-4.7,5.4-9.2,8-13.5c-0.1,4-0.1,8-0.1,11.9v83.4L666.4,694.9L666.4,694.9z"/>
					<path class="st6" d="M963,520.1c-63.6,0-103.2,57.6-103.2,150.4c0.9,91.7,38.6,148.6,98.6,148.6c65.6,0,103.2-55.6,103.2-152.5
						C1061.5,574.9,1024.7,520.1,963,520.1z M960.4,774.5c-29.3,0-47.6-39.7-47.6-103.6c0-64.5,18.8-106.1,48-106.1
						c41.4,0,47.6,64.9,47.6,103.6C1008.4,708,1002.2,774.5,960.4,774.5z"/>
					<path class="st6" d="M1274.1,694.9V542.8c-15.6-4.2-30.7-8.4-45.4-12.7c-2.9-0.9-5.8-1.7-8.6-2.5L1096,705v35h127.2v74.5h51
						V740h38.3v-45.1H1274.1z M1156.5,694.9l58.4-81.2l0.4-0.6c2.8-4.7,5.4-9.2,8-13.5c-0.1,4-0.1,8-0.1,11.9v83.4H1156.5z"/>
				</g>
				<path class="st7" d="M1011.6,398.6c-21.3,10.3-42.3,16.3-60.8,19.9c-23.2-13.4-43.5-26.8-61-40.1c33.4,4.4,62.4,0,81-4.5
					C983.6,382.7,997.3,390.9,1011.6,398.6z"/>
				<path class="st7" d="M1201.2,468.3c-20,20.7-42.9,29.7-63.7,32.8c-2-0.7-4-1.4-6-2.1c-2-0.7-4-1.4-6-2.1c-3-1.1-5.9-2.1-8.8-3.2
					c-2.9-1.1-5.8-2.1-8.7-3.2c-15.8-5.9-30.9-11.8-45.4-17.8c-1.3-0.5-2.6-1.1-3.9-1.6c-3.1-1.3-6.3-2.6-9.3-3.9
					c-0.3-0.1-0.7-0.3-1-0.4c38.8-1.8,66.8-9.1,86.5-17.2C1156.7,456.5,1178.9,462.7,1201.2,468.3z"/>
				<path class="st7" d="M1499.7,513.8c-26.8,33-56.7,52.4-80.4,63.6c-1.2-0.3-2.5-0.5-3.7-0.8c-1.2-0.3-2.4-0.5-3.7-0.8
					c-0.8-0.2-1.6-0.3-2.4-0.5c-35.7-7.6-69.5-15.5-101.6-23.7c46.6-7.9,81.6-32.3,98.8-46.6
					C1444.7,509.6,1476.8,512.3,1499.7,513.8z"/>
				<g>
					<path class="st5" d="M1499.7,513.8C1499.7,513.8,1499.7,513.8,1499.7,513.8c-26.8,33-56.7,52.4-80.4,63.6
						c-1.2-0.3-2.5-0.5-3.7-0.8c-1.2-0.3-2.4-0.5-3.7-0.8c-0.8-0.2-1.6-0.3-2.4-0.5c-35.7-7.6-69.5-15.5-101.6-23.7c0,0,0,0,0,0
						c46.6-7.9,81.6-32.3,98.8-46.6c0,0,0,0,0,0C1444.7,509.5,1476.9,512.2,1499.7,513.8z"/>
					<path class="st5" d="M1201.2,468.3c-20,20.7-42.9,29.7-63.7,32.8c-2-0.7-4-1.4-6-2.1c-2-0.7-4-1.4-6-2.1
						c-3-1.1-5.9-2.1-8.8-3.2c-2.9-1.1-5.8-2.1-8.7-3.2c-15.8-5.9-30.9-11.8-45.4-17.8c-1.3-0.5-2.6-1.1-3.9-1.6
						c-3.1-1.3-6.3-2.6-9.3-3.9c-0.3-0.1-0.7-0.3-1-0.4c38.8-1.8,66.8-9.1,86.5-17.2C1156.7,456.5,1178.9,462.7,1201.2,468.3z"/>
					<path class="st5" d="M1011.6,398.6C1011.6,398.6,1011.6,398.6,1011.6,398.6c-21.3,10.3-42.3,16.3-60.8,19.9
						c-23.2-13.4-43.5-26.8-61-40.1c33.4,4.4,62.4,0,81-4.5c0,0,0,0,0.1,0C983.7,382.7,997.3,390.9,1011.6,398.6z"/>
				</g>
				<g>
					<g>
						<rect x="862.6" y="1101.9" class="st2" width="221.9" height="23.4"/>
					</g>
					<g>
						<polygon class="st5" points="1065.5,1233.1 881.6,1233.1 875.8,1125.3 1071.4,1125.3 						"/>
					</g>
					<g class="st8">
						<path class="st2" d="M1071.4,1125.3H875.8l5.8,107.9h24.2c2.4-16.8,7.1-34.7,16.2-49c16.4-25.9,97.3-36.1,148.4-40
							L1071.4,1125.3z"/>
					</g>
					<g>
						<path class="st2" d="M1231.5,1291.5H731.2l0,0c0-32.2,26.1-58.4,58.4-58.4H1173C1205.3,1233.1,1231.5,1259.3,1231.5,1291.5
							L1231.5,1291.5z"/>
					</g>
				</g>
			</g>
			<g>
				<path class="st9" d="M1362,296.1c0,0-106.1,8.6-106.1,40c0,25.9,47.8,130.4,56.6,170.7c1.6,7.5-8.3,18.5-7.8,19.7
					c2.3,5.8,14.7-2.4,14.7-2.4l9.5-28.9c0,0-36.5-135.7-25.4-146.8c11.1-11.1,118.3-34.1,118.3-34.1L1362,296.1z"/>
				<path class="st5" d="M1328.2,494.7c0,0,2.3-1.5,5.4,3.3c3.2,4.7,1.8,31.5,1.8,31.5l-5,1.1c0,0-0.2-19.6-1.3-19.4
					c-1.2,0.2-3.1,20.6-5.8,21.9c-2.7,1.3-21.1,6.1-24.6,3.7c-3.5-2.4,5.9-10.3,5.9-10.3s9.6-0.5,10.6-2S1328.2,494.7,1328.2,494.7z
					"/>
				<path class="st10" d="M1285.8,336.8c8.7-26.2,88.7-31.8,88.7-31.8l34.2,5.3l13,4c0,0-107.2,22.9-118.3,34.1
					c-7,7,4.8,62.8,14.5,103.5C1302.2,406.2,1280.9,351.6,1285.8,336.8z"/>
				<path class="st11" d="M1459.2,315.2c0,0,3.2,14.7-5.7,23.5c-8.9,8.9-107.8,4.2-112.7,17.4c-8.6,23.5,14.1,138.6,14.1,138.6
					l-9.8,28.7c0,0-13.4,9.1-14.7,5.7c-0.6-1.6,9.4-14.5,8.3-24.7c-4.4-38.3-54.8-147.6-47.5-169.6c8.7-26.2,88.7-31.8,88.7-31.8
					L1459.2,315.2z"/>
				<path class="st2" d="M1459.2,320.1c0,0,3.1,14.7-2.7,20.5c-5.9,5.9-115.6,15.5-115.6,15.5s3.7-18-17.7-26
					c-21.4-8-43.5-10.6-60.3-7.2c0,0,3.3-10.7,35.2-20c31.9-9.3,66.9-9.7,66.9-9.7L1459.2,320.1z"/>
				<path class="st2" d="M1423.9,38.5c-3.3,0.7-33.5,1-33.5,23s0.4,30.7-5.2,40.3c-5.7,9.6,3.8,32.9,10.9,33s7.7,25.5,7.7,25.5
					s40.9,18.3,52.2,13.5c2.8-1.2,6.1-1.4,9.3-1.1c20.1,2.2,34.1-20.5,21.3-36.1c-0.5-0.7-1.1-1.3-1.8-1.9
					c-17.4-17.4-15.3-16-15.3-35.6s-3.5-14-11.8-25.8C1449.3,61.6,1444.5,34.2,1423.9,38.5z"/>
				<linearGradient id="SVGID_3_" gradientUnits="userSpaceOnUse" x1="1313.2999" y1="245.1" x2="1387.2" y2="245.1">
					<stop  offset="0" style="stop-color:#00BDFF"/>
					<stop  offset="1" style="stop-color:#0800BF"/>
				</linearGradient>
				<path class="st12" d="M1387.2,193.4c0,0-19.1,52-41.4,59.7s-32.5,32.1-32.5,32.1l13.2,11.6l43.4-19.3L1387.2,193.4z"/>
				<linearGradient id="SVGID_4_" gradientUnits="userSpaceOnUse" x1="1351.1" y1="228.8114" x2="1462.55" y2="228.8114">
					<stop  offset="0" style="stop-color:#00BDFF"/>
					<stop  offset="1" style="stop-color:#0800BF"/>
				</linearGradient>
				<path class="st13" d="M1398.6,135.1c-6.1,6.1-42.7,38.6-35.3,58.7c16.4,44.6-12.2,95.2-12.2,102.2s87.2,30.6,106.4,30.6
					s-23.1-61.4-15.2-82.3c7.9-21,18.3-105,11.8-111.6C1449.7,128.3,1399.9,133.8,1398.6,135.1z"/>
				<path class="st11" d="M1413.1,95.4l-3.3,39.8c0,0-22.5,47.4-11.7,51.3c10.7,3.9,35.3-49.5,35.3-49.5V86.1L1413.1,95.4z"/>
				<path class="st10" d="M1433.4,86.1v25.7c-6.7,10.1-16.1,17.2-23.1,17.4l2.8-33.8L1433.4,86.1z"/>
				<path class="st11" d="M1413.1,49.4c0,0-11.8-5.2-15.7,18.3c-3.9,23.6-0.6,48.6,11,50.4s33.1-17,33.1-36.4
					C1441.5,65,1422.4,46.9,1413.1,49.4z"/>
				<path class="st14" d="M1355,494.7c0,0,2.3-1.5,5.4,3.3c3.2,4.7,1.8,31.5,1.8,31.5l-5,1.1c0,0-0.2-19.6-1.3-19.4
					c-1.2,0.2-3.1,20.6-5.8,21.9c-2.7,1.3-21.1,6.1-24.6,3.7c-3.5-2.4,5.9-10.3,5.9-10.3s9.6-0.5,10.6-2
					C1343.1,523,1355,494.7,1355,494.7z"/>
				<path class="st15" d="M1298,302.9c31.9-9.3,66.9-9.7,66.9-9.7l39.9,11.4c-3.8,1.2-12,3.7-15.9,3.7c-5.2,0-32,6.9-40.2,6.9
					c-5.3,0-43.1-3.4-68.8-5.7C1284.6,307.4,1290.5,305.1,1298,302.9z"/>
				<polygon class="st1" points="1398.6,301.6 1398.6,294.9 1361.9,304.9 1345.8,304.9 1345.9,308.7 1361.5,308.3 				"/>
				<polygon class="st16" points="1398.6,294.9 1305.4,297.3 1241.4,308.3 1361.9,304.9 				"/>
				<path class="st11" d="M1382.3,285.1c0,0-13.7,4.8-20.8,2.7c-7.1-2-12-3-19.1,1.8c-7,4.9-9.4,10-9.4,10s-4.3,4.7,0,5.3
					c4.3,0.6,33.9-0.3,34.8-1.1c0.8-0.8,24.4-5.2,24.4-5.2L1382.3,285.1z"/>
				<linearGradient id="SVGID_5_" gradientUnits="userSpaceOnUse" x1="1369.9469" y1="219.4851" x2="1481.156" y2="219.4851">
					<stop  offset="0" style="stop-color:#00BDFF"/>
					<stop  offset="1" style="stop-color:#0800BF"/>
				</linearGradient>
				<path class="st17" d="M1473.3,271.9c-17.6,24.9-71.8,35.5-93.3,31.1c0,0-0.6-7-10-16.4c-2.2-2.2,64.7-28.1,72.3-32.6
					c7.7-4.4,10.4-119,10.4-119s11.6,4.9,16.9,21.8C1480.4,190.7,1487.3,252.1,1473.3,271.9z"/>
				<path class="st2" d="M1474.7,172c4.8-1.4,9.1-4.5,12.1-8.5c6.2-8.4,6.3-20.1-2.1-28.6c-17.4-17.4-15.3-16-15.3-35.6
					s2-24.3-6.3-36.1s-18.6-28.9-39.2-24.6c-0.3,0.1-0.7,0.1-1.3,0.2c-0.4,0.1-22.4,0.2-18.3,12.6c0,0,5.3-2.6,9,3.2
					c6.8,10.8,7,14.2,14.8,17.7c7.9,3.5,4.8,17,4.8,26c0,6.9,1,13.7,0.8,20.6c-0.2,7.8-15.1,62.2,28.9,54.1
					C1466.7,172.1,1470.7,173.2,1474.7,172z"/>
				<path class="st1" d="M1338.3,187.7l24.7,110.7c1.2,5.2-2.7,10.1-8.1,10.2l-116.3,1.7c-3.8,0.1-7.1-2.4-8.2-6l-32.9-112.4
					c-1.6-5.4,2.5-10.7,8-10.7h124.4C1334,181.1,1337.4,183.8,1338.3,187.7z"/>
				<path class="st18" d="M1340.2,196.2l22.8,102.1c1.2,5.2-2.7,10.1-8.1,10.2l-76.8,1.1c-11.5-20.9-30.5-58.6-30.5-79.2
					C1247.6,210.5,1304,200.6,1340.2,196.2z"/>
			</g>
			<g>
				<path class="st6" d="M675,923.3v37.1c-6.7,0-13.4,0-20,0v-75.8h7l38.2,37.3v-37c6.6,0,13.2,0,19.7,0v75.6H713L675,923.3z"/>
				<path class="st6" d="M734.5,922.8c0-52.2,77.5-52.2,77.5,0C812,975.1,734.5,975.1,734.5,922.8z M792.2,922.8
					c0-27.2-37.9-27.2-37.9,0C754.4,950.2,792.2,950.2,792.2,922.8z"/>
				<path class="st6" d="M819.1,902.2c0-5.8,0-11.5,0-17.3h56.1c0,5.7,0,11.4,0,17.3h-18.4v58.3c-6.4,0-12.7,0-19.1,0v-58.3H819.1z"
					/>
				<path class="st6" d="M936.5,935.9v24.5c-6.5,0-13,0-19.6,0v-75.5c15.4,0,31.6,0,47,0c0,6.4,0,10.8,0,17.3h-27.4v16.5h24.3
					c0,6.5,0,10.6,0,17.3L936.5,935.9L936.5,935.9z"/>
				<path class="st6" d="M974.2,922.8c0-52.2,77.5-52.2,77.5,0C1051.6,975.1,974.2,975.1,974.2,922.8z M1031.9,922.8
					c0-27.2-37.9-27.2-37.9,0C994,950.2,1031.9,950.2,1031.9,922.8z"/>
				<path class="st6" d="M1106.9,935v-50.1c6.2,0,12.6,0,18.7,0v50.4c0,16.6-14.6,26.2-30.1,26.2c-15.4,0-30-9.6-30-26.2v-50.4
					c6,0,12.4,0,18.4,0V935c0,6.1,5.9,9.2,11.5,9.2C1101,944.1,1106.9,941.1,1106.9,935z"/>
				<path class="st6" d="M1164,923.3v37.1c-6.7,0-13.4,0-20,0v-75.8h7l38.2,37.3v-37c6.6,0,13.2,0,19.7,0v75.6h-6.9L1164,923.3z"/>
				<path class="st6" d="M1256.7,960.4h-28.5v-75.5h28.5C1305.9,885.1,1305.9,960.2,1256.7,960.4z M1247.6,942.9h9.2
					c24.1,0,24.1-40.4,0-40.4h-9.2V942.9z"/>
			</g>
			<path class="st7" d="M833.5,1101.8c1.3-2,2.5-4,3.6-6.1c4-0.3,8-0.6,12-0.9H849c1.7-0.1,3.4-0.3,5.1-0.4c6-0.5,11.9-1,17.8-1.5
				c0.8-0.1,1.7-0.1,2.5-0.2c1.9-0.2,3.8-0.3,5.8-0.5c2-0.2,4-0.4,6-0.6c2-0.2,4-0.4,6-0.6c2-0.2,4-0.4,6-0.6
				c4-0.4,7.9-0.8,11.9-1.2c1.7-0.2,3.5-0.4,5.2-0.5c4.1-0.4,8.3-0.9,12.4-1.3c1.9-0.2,3.9-0.4,5.8-0.6c-0.2,2.4-0.5,5.1-0.9,8
				c-0.3,1.9-0.7,3.9-1.2,6c-2.9,0.1-5.8,0.2-8.7,0.3c-5.8,0.1-11.6,0.3-17.5,0.4c0,0-0.1,0-0.1,0c-5.9,0.1-11.8,0.2-17.8,0.3
				c-1.9,0-3.9,0-5.8,0.1h-0.2c-4,0-8,0.1-12.1,0.1c-2.1,0-4.3,0-6.5,0h-2.9c-1.2,0-2.4,0-3.6,0c-2.4,0-4.8,0.1-7.1,0.1
				c-1.2,0-2.4,0-3.5,0c-4.1,0-8.2,0.1-12.2,0.1"/>
			<path class="st7" d="M655.7,1102c7.6,0,15.1,0,22.6-0.1c3.4,0,6.8-0.1,10.2-0.1"/>
			<path class="st7" d="M1137.2,1083.4c-31.8,4.6-65.3,8.4-100.5,11.4c-0.1,0-0.3,0-0.4,0c0,0,0,0,0,0c2.8-8.1,4.1-15.9,4.6-22.9
				c33.9-5.7,65.8-11.9,96-18.5C1139.6,1063.8,1139.3,1073.9,1137.2,1083.4z"/>
			<path class="st7" d="M1346,1036.7c-7.5,2.4-15.2,4.8-23.1,7.1c-5.5,1.6-11.1,3.2-16.8,4.8c-1.6,0.5-3.3,0.9-4.9,1.4
				c-0.3,0.1-0.6,0.2-1,0.3c-4.5,1.2-9,2.4-13.5,3.6c-1.5,0.4-3.1,0.8-4.6,1.2c-2,0.5-4.1,1-6.2,1.6s-4.1,1-6.2,1.5
				c-4.2,1-8.4,2-12.6,3c-2.1,0.5-4.2,1-6.4,1.5c1.2-4.2,2-8.4,2.6-12.6c1.3-9.5,1.2-18.6,0.4-26.6c36.3-10.7,68.7-21.7,97.4-32.5
				C1351.8,1009.9,1349.4,1025,1346,1036.7z"/>
			<path class="st7" d="M1503.6,920.1c-0.1,20.2-2.9,38.5-6.6,53.6c-4.3,2.3-8.7,4.6-13.1,6.9c-0.7,0.3-1.3,0.7-2,1
				c-2.6,1.3-5.3,2.7-8,4c-0.2,0.1-0.4,0.2-0.6,0.3c-13.6,6.7-27.9,13.3-43,19.7c3.7-19.6,4.9-38.6,5.2-50
				c19.7-9.2,35.9-17.5,48.7-24.4C1491.9,926.9,1498.4,923.2,1503.6,920.1z"/>
			<g>
				<path class="st5" d="M933.3,1086.8c-0.2,2.4-0.5,5.1-0.9,8c-0.3,1.9-0.7,3.9-1.2,6c-2.9,0.1-5.8,0.2-8.7,0.3
					c-5.8,0.1-11.6,0.3-17.5,0.4c0,0-0.1,0-0.1,0c-5.9,0.1-11.8,0.2-17.8,0.3c-1.9,0-3.9,0-5.8,0.1h-0.2c-4,0-8,0.1-12.1,0.1
					c-2.9,0-5.9,0-8.8,0h-0.5c-1.2,0-2.4,0-3.6,0c-2.4,0-4.8,0.1-7.1,0.1c-1.2,0-2.4,0-3.5,0c-4.1,0-8.2,0.1-12.2,0.1c0,0,0,0,0,0
					c0.1-0.1,0.1-0.2,0.2-0.3c0,0,0-0.1,0.1-0.1c1.3-2,2.5-4,3.6-6.1c4-0.3,8-0.6,12-0.9c1.7-0.1,3.3-0.3,5-0.4
					c6-0.5,11.9-1,17.8-1.5c0.8-0.1,1.7-0.1,2.5-0.2c1.9-0.2,3.8-0.3,5.8-0.5c2-0.2,4-0.4,6-0.6c2-0.2,4-0.4,6-0.6
					c2-0.2,4-0.4,6-0.6c4-0.4,7.9-0.8,11.9-1.2c1.7-0.2,3.5-0.4,5.2-0.5c4.1-0.4,8.3-0.9,12.4-1.3
					C929.5,1087.2,931.4,1087,933.3,1086.8z"/>
				<path class="st5" d="M1503.6,920.1c-0.1,20.2-2.9,38.5-6.6,53.6c-4.3,2.3-8.7,4.6-13.1,6.9c-0.7,0.3-1.3,0.7-2,1
					c-2.6,1.3-5.3,2.7-8,4c-0.2,0.1-0.4,0.2-0.6,0.3c-13.6,6.7-27.9,13.3-43,19.7c0,0,0,0,0,0c3.7-19.6,4.9-38.6,5.2-50
					c19.7-9.2,35.9-17.5,48.7-24.4C1491.9,926.9,1498.4,923.2,1503.6,920.1z"/>
				<path class="st5" d="M1346,1036.7C1346,1036.7,1346,1036.7,1346,1036.7c-7.5,2.4-15.2,4.8-23.1,7.1c-5.5,1.6-11.1,3.2-16.8,4.8
					c-1.6,0.5-3.3,0.9-5,1.4c-0.3,0.1-0.6,0.2-0.9,0.3c-4.5,1.2-9,2.4-13.5,3.6c-1.5,0.4-3.1,0.8-4.6,1.2c-2,0.5-4.1,1-6.2,1.6
					s-4.1,1-6.2,1.5c-4.2,1-8.4,2-12.6,3c-2.1,0.5-4.2,1-6.4,1.5c1.2-4.2,2-8.4,2.6-12.6c1.3-9.5,1.2-18.6,0.4-26.6
					c36.3-10.7,68.7-21.7,97.4-32.5C1351.8,1009.9,1349.4,1025,1346,1036.7z"/>
				<path class="st5" d="M1137.2,1083.4C1137.2,1083.4,1137.2,1083.5,1137.2,1083.4c-31.6,4.6-64.9,8.4-99.8,11.4
					c-0.4,0-0.8,0.1-1.2,0.1c0,0,0,0,0-0.1c0,0,0,0,0,0c2.8-8.1,4.1-15.9,4.6-22.9c33.9-5.7,65.8-11.9,96-18.5
					C1139.6,1063.8,1139.3,1073.9,1137.2,1083.4z"/>
			</g>
		</g>
		<g>
			<path class="st19" d="M257.3,877.3c0.6,2.1,0.9,2.9,1.7,4.3c4.8,9.3,15.9,22.6,15.9,22.6l8.6-20.7c0,0-1.4-6.5-3.8-15.8
				C271.3,870.1,263.4,871.4,257.3,877.3z"/>
			<linearGradient id="SVGID_6_" gradientUnits="userSpaceOnUse" x1="237.0995" y1="834.1253" x2="306.5" y2="834.1253">
				<stop  offset="0" style="stop-color:#00BDFF"/>
				<stop  offset="1" style="stop-color:#0800BF"/>
			</linearGradient>
			<path class="st20" d="M306.5,859.4c0,0-47.9,22-49.5,21.6c-1-0.3-19.7-33.6-19.9-64.9c-0.1-14.5,14-31.9,29.7-28.4
				c7.9,1.7,7.8,4.1,19.5,22.2C298.1,828,306.5,859.4,306.5,859.4z"/>
			<path class="st21" d="M347.4,1254.3l-1.1,20.1c-0.4,2.6-2.1,8.9-2.1,11.2c0,8.7,38.8-7.4,30.1-11.3c-0.8-0.3-4.9-3-5.2-6
				c-0.4-4.6-1.4-13.8-1.4-13.8L347.4,1254.3z"/>
			<path class="st2" d="M374.2,1274.2c0,0-9.1,2.7-13.8,3.3c-4.7,0.7-10.8-4.9-14.1-3.4c-3.6,1.7-3.5,16.7-3.5,16.7
				s48.8,4.3,62.5-0.1C410.8,1288.9,392.8,1280.4,374.2,1274.2z"/>
			<path class="st21" d="M268.2,1254.3l-1.1,20.1c-0.4,2.6-2.1,8.9-2.1,11.2c0,8.7,38.8-7.4,30.1-11.3c-0.8-0.3-6.1-5-6.4-7.9
				c-0.4-4.6-0.2-11.8-0.2-11.8L268.2,1254.3z"/>
			<path class="st2" d="M294.9,1274.2c0,0-9.1,2.7-13.8,3.3c-4.7,0.7-10.8-4.9-14.1-3.4c-3.6,1.7-3.8,16.7-3.8,16.7s49,5,62.8-0.1
				C331.5,1288.7,313.5,1280.4,294.9,1274.2z"/>
			<g>
				<path class="st21" d="M280,888.4l34.1-51c0.1-0.4,0.5-1.4,0.9-2.8c1.7-5.1,5.3-15.6,8.4-26.1v-0.1c1-3.7,3.1-10.1,5.1-16.2
					c2.2-6.9,5-15.4,5.1-16.9c-0.1-0.2-0.2-0.7-0.5-1.3c-1.3-3.5-2.9-11.7-3.5-15.3c-0.4-2.3-0.8-7.8,1.8-7.8c4,0,2.1,5.5,3.9,9
					c0.7-2.3,2-6.9,2.8-11.6l0.7-10.8c0.1-0.8-0.7-6.8,2.1-6.8h0.1c2.5,0.2,2.5,6.6,3.5,17.3c0.3-1.2,0.7-2.7,0.9-4.1
					c0-0.7,0.5-4,0.9-5.7c-0.5-3-0.2-7.7,2.8-7.3c1.5,0.2,1.4,6.8,1.4,6.8c0,0.9-0.1,7.9-0.1,9.3c0.3-2.3,1.5-12.3,3.9-12.3
					c1.9,0,2.1,2.7,2.1,4.8c0,1.3-1.2,12.1-1.3,13.3c0.9-1.6,2-11.2,2.9-11.2c3.8,0,2.4,13.6,1,17.1c-0.1,0.4-0.3,1.1-0.4,1.9
					c-0.5,2.4-1.3,6.5-3.3,10.1c-2.4,4.4-5.7,11.3-6.2,12.3c-0.4,2.2-1.5,9.9-2.9,19.7c-0.6,4.2-1.3,8.8-2,13.5l0,0
					c-0.1,1-0.8,4.3-3.5,16.6c-3.7,16.8-4.1,17.5-4.2,17.8c-1.6,3-38.4,56.4-40,58.6l-0.9,1.3L280,888.4z"/>
				<path class="st22" d="M343.5,769.4c0,0-2.8-7.6-7.7-7.6c0,0,2.8-1.1,5.1,0.9C343.3,764.8,343.5,769.4,343.5,769.4z"/>
			</g>
			<g>
				<path class="st21" d="M271.8,754.8l-4.4,29.7c0,0,16.7,14.3,26.5,11.3c8.2-2.5,2.6-14,2.6-14s-4.4-15.8-3-24.1
					C294.8,749.4,271.8,754.8,271.8,754.8z"/>
				<path class="st23" d="M274.9,763.8c4.2,2.1,12.5,5,18.9,5.7c-0.6-4.1-1-8.5-0.4-11.8c0.6-3.8-3.9-4.7-9-4.6
					c-6.7,0.6-12.6,1.7-12.6,1.7l-0.8,5.7C272.2,762,273.5,763.1,274.9,763.8z"/>
				<path class="st21" d="M250.6,720.6c-0.7,0,6.6,33.1,17.9,38.8s28.2,2.7,31.3-6.2c3.5-9.9-9.3-43.7-25.2-48
					C258.8,701,250.6,720.6,250.6,720.6z"/>
				<path class="st24" d="M263.7,690.2c-9,5.6-13.2,13.8-14.6,17.2c-4.2,2.1-9.4,6.8-11.8,19.3c-3,15.4,7.7,27.3,19.2,30.8
					c11.4,3.6,13.3,11.6,13.3,11.6l1.1-8.7c0,0-2.5-7.6-6.4-11.3c-3.8-3.8,1.8-9.3,2.3-13.8c0.4-3.5-2-10.2-1.5-15.9
					c0,0,6.3-10.3,12.6-12.8C288.7,702.4,275.3,683,263.7,690.2z"/>
				<path class="st21" d="M268.5,741.1c1.5,3.8,0.9,7.6-1.3,8.5c-2.2,0.9-5.2-1.5-6.7-5.4c-1.5-3.8-0.9-7.6,1.3-8.5
					C264.1,734.9,267.1,737.3,268.5,741.1z"/>
			</g>
			<path class="st19" d="M310.7,889.3l65.8-11.5c0,0-7.5-20.1-10.2-20.1s-49.8,21.9-49.8,21.9l-3.7,8L310.7,889.3z"/>
			<path class="st2" d="M276.9,937.4c0,0-6.6,33.9-3.9,59.6c2.7,25.7,2.9,117,2.9,117l-10.2,146l24.2,0.6c0,0,28.7-146,28.2-142.2
				c-0.5,3.7,9.6-102.8,9.6-102.8l-34.3-81.4L276.9,937.4z"/>
			<path class="st1" d="M283.4,935.8c0,0-4.3,30.5,1.1,43.9s45.9,144.7,46.4,155.4s14,129,14,129l28.2-0.8l6.1-131.6l-12.8-165.3
				L354,924.6L283.4,935.8z"/>
			<path class="st21" d="M267.4,784.5c0,0,6.9,4.9,13.4,4.3c6.5-0.6,15.6-6.9,15.6-6.9l-1.3-4.6c0,0-16.8-2.6-17.2-2.3
				C277.6,775.2,267.4,784.5,267.4,784.5z"/>
			<path class="st19" d="M341.4,856.7c0,0,24.9,25.1,36.1,20.8s15.9-18.9-11.5-40.3C341.5,818,341.4,856.7,341.4,856.7z"/>
			<linearGradient id="SVGID_7_" gradientUnits="userSpaceOnUse" x1="244.0858" y1="880.4807" x2="366.8015" y2="880.4807">
				<stop  offset="0" style="stop-color:#00BDFF"/>
				<stop  offset="1" style="stop-color:#0800BF"/>
			</linearGradient>
			<path class="st25" d="M358.3,887.7c-3.7-21.5-30.5-88.3-32.7-100.6c-1-6-15.5-6.1-29.3-5.3c-14.5,0.8-29,2.8-29,2.8
				s-12.9,2.3-18.5,7.9c-5.7,5.7-7.2,21.3,1,51.1c6.4,23.5,14.4,36.4,18.3,53.5c0.8,5.7,1.5,11.4,2.4,18c1.5,25.6,0,59.4,0,59.4
				s70.1,15.5,96.3-8C366.9,966.3,362.1,909.7,358.3,887.7z"/>
			<linearGradient id="SVGID_8_" gradientUnits="userSpaceOnUse" x1="297.7495" y1="823.9498" x2="376.2" y2="823.9498">
				<stop  offset="0" style="stop-color:#00BDFF"/>
				<stop  offset="1" style="stop-color:#0800BF"/>
			</linearGradient>
			<path class="st26" d="M376.2,841.5c0,0-27.5,24.2-29.1,24.2c-1,0-39.3-30-48.1-54.7c-4.9-13.6,5.4-28.9,17-28.8
				c8.1,0,11.7,2.3,27.8,16.7C359.8,813.4,376.2,841.5,376.2,841.5z"/>
		</g>
	</g>
</g>
</svg>
